<svg width="664" height="593" viewBox="0 0 664 593" fill="none" xmlns="http://www.w3.org/2000/svg">
<g clip-path="url(#clip0_69_1526)">
<path d="M598.688 308.533C598.774 381.892 571.113 452.43 521.517 505.317C518.527 508.526 515.457 511.658 512.305 514.712C507.504 519.394 502.542 523.894 497.418 528.213C449.486 568.693 389.648 591.441 327.557 592.786C325.488 592.834 323.412 592.858 321.327 592.858C271.808 592.858 209.526 565.745 153.004 528.213C148.328 525.107 143.693 521.93 139.1 518.681C136.953 517.177 134.817 515.651 132.691 514.104C110.891 498.325 90.1993 480.997 70.7673 462.247C58.0444 450.007 46.1137 436.93 35.0511 423.098C-8.37827 368.184 -17.9572 318.704 43.9586 308.533C51.2892 307.332 58.4039 306.049 65.3025 304.683C75.2952 302.715 84.8586 300.589 93.9925 298.305C106.296 295.24 117.855 291.917 128.67 288.334C132.308 287.134 135.863 285.909 139.335 284.661C190.657 266.183 225.007 242.087 248.388 215.942C252.354 211.517 256.01 207.038 259.357 202.506C264.477 195.607 269.128 188.356 273.276 180.803C279.002 170.308 283.812 159.315 287.648 147.952L287.859 147.328C306.463 92.3179 300.803 41.2932 321.327 24.2156C409.06 -48.7923 518.285 55.1777 569.553 177.786C572.137 183.964 574.567 190.179 576.844 196.432C577.867 199.225 578.853 202.023 579.803 204.827C582.301 212.133 584.568 219.458 586.603 226.802C587.384 229.603 588.128 232.401 588.836 235.197C589.593 238.214 590.319 241.223 590.99 244.232C595.979 266.263 598.688 287.99 598.688 308.533Z" fill="#6C63FF"/>
<path d="M327.557 592.786C325.488 592.834 323.412 592.858 321.327 592.858C271.809 592.858 209.526 565.745 153.005 528.213C148.328 525.108 143.694 521.93 139.101 518.681L143.129 493.553L265.079 476.956L326.285 524.931L327.557 592.786Z" fill="#2F2E41"/>
<path d="M333.428 144.087H316.05C315.512 144.087 314.996 144.306 314.615 144.697C314.235 145.087 314.021 145.616 314.021 146.167V163.989C314.021 164.262 314.073 164.532 314.176 164.784C314.278 165.036 314.428 165.265 314.616 165.457C314.805 165.65 315.028 165.802 315.274 165.906C315.52 166.01 315.784 166.063 316.05 166.062H333.428C333.965 166.062 334.48 165.844 334.861 165.456C335.241 165.067 335.456 164.54 335.458 163.989V146.167C335.456 145.616 335.242 145.088 334.862 144.698C334.481 144.308 333.966 144.088 333.428 144.087Z" fill="white"/>
<path d="M333.428 174.457H316.05C315.512 174.457 314.996 174.676 314.615 175.066C314.235 175.457 314.021 175.986 314.021 176.537V194.359C314.021 194.632 314.073 194.902 314.176 195.154C314.278 195.406 314.428 195.635 314.616 195.827C314.805 196.02 315.028 196.172 315.274 196.276C315.52 196.38 315.784 196.433 316.05 196.432H333.428C333.965 196.432 334.48 196.214 334.861 195.826C335.241 195.437 335.456 194.91 335.458 194.359V176.537C335.456 175.986 335.242 175.458 334.862 175.068C334.481 174.678 333.966 174.458 333.428 174.457Z" fill="#E6E6E6"/>
<path d="M333.428 204.827H316.05C315.512 204.827 314.996 205.046 314.615 205.436C314.235 205.827 314.021 206.356 314.021 206.907V224.721C314.02 224.995 314.072 225.265 314.174 225.518C314.276 225.771 314.425 226 314.614 226.194C314.802 226.387 315.026 226.54 315.273 226.645C315.519 226.749 315.783 226.802 316.05 226.802H333.428C333.966 226.802 334.482 226.582 334.863 226.192C335.244 225.802 335.458 225.273 335.458 224.721V206.907C335.456 206.356 335.242 205.828 334.862 205.438C334.481 205.048 333.966 204.828 333.428 204.827Z" fill="#E6E6E6"/>
<path d="M335.427 236.909C335.34 236.43 335.093 235.997 334.728 235.684C334.363 235.371 333.904 235.199 333.428 235.197H316.05C315.512 235.197 314.996 235.416 314.615 235.806C314.235 236.196 314.021 236.726 314.021 237.277V255.091C314.02 255.364 314.072 255.635 314.174 255.888C314.276 256.141 314.425 256.37 314.614 256.564C314.802 256.757 315.026 256.91 315.273 257.014C315.519 257.119 315.783 257.172 316.05 257.172H333.428C333.966 257.172 334.482 256.952 334.863 256.562C335.244 256.172 335.458 255.643 335.458 255.091V237.277C335.459 237.154 335.449 237.031 335.427 236.909Z" fill="#E6E6E6"/>
<path d="M334.217 265.727C333.967 265.621 333.699 265.566 333.428 265.567H316.05C315.783 265.566 315.519 265.619 315.273 265.724C315.026 265.828 314.802 265.981 314.614 266.175C314.425 266.368 314.276 266.598 314.174 266.85C314.072 267.103 314.02 267.374 314.021 267.647V285.461C314.019 285.735 314.071 286.006 314.173 286.259C314.274 286.512 314.424 286.742 314.612 286.935C314.801 287.129 315.025 287.282 315.272 287.386C315.519 287.49 315.783 287.543 316.05 287.542H333.428C333.966 287.542 334.483 287.322 334.863 286.932C335.244 286.542 335.458 286.013 335.458 285.461V267.647C335.457 267.238 335.339 266.837 335.118 266.496C334.898 266.155 334.584 265.887 334.217 265.727Z" fill="#E6E6E6"/>
<path d="M369.933 144.087H352.555C352.016 144.087 351.5 144.306 351.12 144.697C350.739 145.087 350.525 145.616 350.525 146.167V163.989C350.525 164.262 350.578 164.532 350.68 164.784C350.782 165.036 350.932 165.265 351.12 165.457C351.309 165.65 351.533 165.802 351.779 165.906C352.025 166.01 352.288 166.063 352.555 166.062H369.933C370.47 166.062 370.985 165.844 371.365 165.456C371.746 165.067 371.961 164.54 371.962 163.989V146.167C371.961 145.616 371.746 145.088 371.366 144.698C370.986 144.308 370.47 144.088 369.933 144.087Z" fill="#E6E6E6"/>
<path d="M369.933 174.457H352.555C352.016 174.457 351.5 174.676 351.12 175.066C350.739 175.457 350.525 175.986 350.525 176.537V194.359C350.525 194.632 350.578 194.902 350.68 195.154C350.782 195.406 350.932 195.635 351.12 195.827C351.309 196.02 351.533 196.172 351.779 196.276C352.025 196.38 352.288 196.433 352.555 196.432H369.933C370.47 196.432 370.985 196.214 371.365 195.826C371.746 195.437 371.961 194.91 371.962 194.359V176.537C371.961 175.986 371.746 175.458 371.366 175.068C370.986 174.678 370.47 174.458 369.933 174.457Z" fill="#6C63FF"/>
<path d="M369.933 204.827H352.555C352.016 204.827 351.5 205.046 351.12 205.436C350.739 205.827 350.525 206.356 350.525 206.907V224.721C350.524 224.995 350.577 225.265 350.678 225.518C350.78 225.771 350.93 226 351.118 226.194C351.307 226.387 351.531 226.54 351.777 226.645C352.024 226.749 352.288 226.802 352.555 226.802H369.933C370.471 226.802 370.987 226.582 371.368 226.192C371.748 225.802 371.962 225.273 371.962 224.721V206.907C371.961 206.356 371.746 205.828 371.366 205.438C370.986 205.048 370.47 204.828 369.933 204.827Z" fill="#6C63FF"/>
<path d="M369.933 235.197H352.555C352.129 235.197 351.714 235.335 351.37 235.59C351.025 235.846 350.768 236.207 350.634 236.621C350.562 236.832 350.525 237.054 350.525 237.277V255.091C350.524 255.364 350.576 255.635 350.678 255.888C350.78 256.141 350.93 256.37 351.118 256.564C351.307 256.757 351.531 256.91 351.777 257.014C352.024 257.119 352.288 257.172 352.555 257.172H369.933C370.471 257.172 370.987 256.952 371.368 256.562C371.748 256.172 371.962 255.643 371.962 255.091V237.277C371.961 236.726 371.746 236.198 371.366 235.808C370.986 235.418 370.47 235.198 369.933 235.197Z" fill="#6C63FF"/>
<path d="M369.933 265.567H352.555C352.288 265.566 352.024 265.619 351.777 265.724C351.531 265.828 351.307 265.981 351.118 266.175C350.93 266.368 350.78 266.598 350.678 266.85C350.577 267.103 350.524 267.374 350.525 267.647V285.461C350.524 285.734 350.577 286.005 350.678 286.258C350.78 286.511 350.93 286.74 351.118 286.934C351.307 287.127 351.531 287.28 351.777 287.385C352.024 287.489 352.288 287.542 352.555 287.542H369.933C370.471 287.542 370.987 287.322 371.368 286.932C371.748 286.542 371.962 286.013 371.962 285.461V267.647C371.962 267.095 371.748 266.566 371.368 266.176C370.987 265.786 370.471 265.567 369.933 265.567Z" fill="#E6E6E6"/>
<path d="M406.437 144.087H389.059C388.521 144.087 388.005 144.306 387.625 144.697C387.244 145.087 387.03 145.616 387.03 146.167V163.989C387.03 164.262 387.083 164.532 387.185 164.784C387.287 165.036 387.437 165.265 387.625 165.457C387.814 165.65 388.038 165.802 388.284 165.906C388.53 166.01 388.793 166.063 389.059 166.062H406.437C406.974 166.062 407.489 165.844 407.87 165.456C408.25 165.067 408.465 164.54 408.467 163.989V146.167C408.465 145.616 408.251 145.088 407.871 144.698C407.49 144.308 406.975 144.088 406.437 144.087Z" fill="#6C63FF"/>
<path d="M406.437 174.457H389.059C388.521 174.457 388.005 174.676 387.624 175.066C387.244 175.457 387.03 175.986 387.03 176.537V194.359C387.03 194.632 387.083 194.902 387.185 195.154C387.287 195.406 387.437 195.635 387.625 195.827C387.814 196.02 388.038 196.172 388.284 196.276C388.53 196.38 388.793 196.433 389.059 196.432H406.437C406.974 196.432 407.489 196.214 407.87 195.826C408.25 195.437 408.465 194.91 408.467 194.359V176.537C408.465 175.986 408.251 175.458 407.871 175.068C407.49 174.678 406.975 174.458 406.437 174.457Z" fill="#6C63FF"/>
<path d="M406.437 204.827H389.059C388.521 204.827 388.005 205.046 387.624 205.436C387.244 205.827 387.03 206.356 387.03 206.907V224.721C387.029 224.995 387.081 225.265 387.183 225.518C387.285 225.771 387.434 226 387.623 226.194C387.812 226.387 388.036 226.54 388.282 226.645C388.529 226.749 388.793 226.802 389.059 226.802H406.437C406.975 226.802 407.491 226.582 407.872 226.192C408.253 225.802 408.467 225.273 408.467 224.721V206.907C408.465 206.356 408.251 205.828 407.871 205.438C407.49 205.048 406.975 204.828 406.437 204.827Z" fill="#E6E6E6"/>
<path d="M406.437 235.197H389.059C388.521 235.197 388.005 235.416 387.625 235.806C387.244 236.196 387.03 236.726 387.03 237.277V255.091C387.029 255.364 387.081 255.635 387.183 255.888C387.285 256.141 387.434 256.37 387.623 256.564C387.812 256.757 388.036 256.91 388.282 257.014C388.529 257.119 388.793 257.172 389.059 257.172H406.437C406.975 257.172 407.492 256.952 407.872 256.562C408.253 256.172 408.467 255.643 408.467 255.091V237.277C408.465 236.726 408.251 236.198 407.871 235.808C407.49 235.418 406.975 235.198 406.437 235.197Z" fill="#6C63FF"/>
<path d="M406.437 265.567H389.059C388.793 265.566 388.529 265.619 388.282 265.724C388.036 265.828 387.812 265.981 387.623 266.175C387.434 266.368 387.285 266.598 387.183 266.85C387.081 267.103 387.029 267.374 387.03 267.647V285.461C387.029 285.734 387.081 286.005 387.183 286.258C387.285 286.511 387.434 286.74 387.623 286.934C387.812 287.127 388.036 287.28 388.282 287.385C388.529 287.489 388.793 287.542 389.059 287.542H406.437C406.975 287.542 407.492 287.322 407.872 286.932C408.253 286.542 408.467 286.013 408.467 285.461V267.647C408.467 267.095 408.253 266.566 407.872 266.176C407.492 265.786 406.975 265.567 406.437 265.567Z" fill="#6C63FF"/>
<path d="M442.942 144.087H425.564C425.026 144.087 424.51 144.306 424.129 144.697C423.748 145.087 423.534 145.616 423.534 146.167V163.989C423.534 164.262 423.587 164.532 423.689 164.784C423.792 165.036 423.941 165.265 424.13 165.457C424.318 165.65 424.542 165.802 424.788 165.906C425.034 166.01 425.298 166.063 425.564 166.062H442.942C443.479 166.062 443.994 165.844 444.374 165.456C444.755 165.067 444.97 164.54 444.971 163.989V146.167C444.97 145.616 444.755 145.088 444.375 144.698C443.995 144.308 443.479 144.088 442.942 144.087Z" fill="#6C63FF"/>
<path d="M442.942 174.457H425.564C425.026 174.457 424.51 174.676 424.129 175.066C423.748 175.457 423.534 175.986 423.534 176.537V194.359C423.534 194.632 423.587 194.902 423.689 195.154C423.792 195.406 423.941 195.635 424.13 195.827C424.318 196.02 424.542 196.172 424.788 196.276C425.034 196.38 425.298 196.433 425.564 196.432H442.942C443.479 196.432 443.994 196.214 444.374 195.826C444.755 195.437 444.97 194.91 444.971 194.359V176.537C444.97 175.986 444.756 175.458 444.375 175.068C443.995 174.678 443.479 174.458 442.942 174.457Z" fill="white"/>
<path d="M442.942 204.827H425.564C425.026 204.827 424.51 205.046 424.129 205.436C423.748 205.827 423.534 206.356 423.534 206.907V224.721C423.534 224.995 423.586 225.265 423.688 225.518C423.789 225.771 423.939 226 424.128 226.194C424.316 226.387 424.54 226.54 424.787 226.645C425.033 226.749 425.297 226.802 425.564 226.802H442.942C443.48 226.802 443.996 226.582 444.377 226.192C444.757 225.802 444.971 225.273 444.971 224.721V206.907C444.97 206.356 444.756 205.828 444.375 205.438C443.995 205.048 443.48 204.828 442.942 204.827Z" fill="white"/>
<path d="M442.942 235.197H425.564C425.026 235.197 424.51 235.416 424.129 235.806C423.748 236.196 423.534 236.726 423.534 237.277V255.091C423.534 255.364 423.586 255.635 423.688 255.888C423.789 256.141 423.939 256.37 424.128 256.564C424.316 256.757 424.54 256.91 424.787 257.014C425.033 257.119 425.297 257.172 425.564 257.172H442.942C443.48 257.172 443.996 256.952 444.377 256.562C444.757 256.172 444.971 255.643 444.971 255.091V237.277C444.97 236.726 444.756 236.198 444.375 235.808C443.995 235.418 443.479 235.198 442.942 235.197Z" fill="#E6E6E6"/>
<path d="M442.942 265.567H425.564C425.297 265.566 425.033 265.619 424.787 265.724C424.54 265.828 424.316 265.981 424.128 266.175C423.939 266.368 423.789 266.598 423.688 266.85C423.586 267.103 423.534 267.374 423.534 267.647V285.461C423.534 285.734 423.586 286.005 423.688 286.258C423.789 286.511 423.939 286.74 424.128 286.934C424.316 287.127 424.54 287.28 424.787 287.385C425.033 287.489 425.297 287.542 425.564 287.542H442.942C443.48 287.542 443.996 287.322 444.377 286.932C444.757 286.542 444.971 286.013 444.971 285.461V267.647C444.971 267.095 444.757 266.566 444.377 266.176C443.996 265.786 443.48 265.567 442.942 265.567Z" fill="#6C63FF"/>
<path d="M479.447 144.087H462.061C461.524 144.089 461.01 144.309 460.631 144.699C460.252 145.089 460.039 145.617 460.039 146.167V163.989C460.039 164.539 460.252 165.066 460.631 165.455C461.011 165.844 461.525 166.062 462.061 166.062H479.447C479.984 166.062 480.499 165.844 480.88 165.456C481.26 165.067 481.475 164.54 481.477 163.989V146.167C481.475 145.616 481.261 145.088 480.88 144.698C480.5 144.308 479.985 144.088 479.447 144.087Z" fill="white"/>
<path d="M479.447 174.457H462.061C461.524 174.459 461.01 174.679 460.631 175.069C460.252 175.459 460.039 175.987 460.039 176.537V194.359C460.039 194.909 460.252 195.436 460.631 195.825C461.011 196.213 461.525 196.432 462.061 196.432H479.447C479.984 196.432 480.499 196.214 480.88 195.826C481.26 195.437 481.475 194.91 481.477 194.359V176.537C481.475 175.986 481.261 175.458 480.88 175.068C480.5 174.678 479.985 174.458 479.447 174.457Z" fill="white"/>
<path d="M479.447 204.827H462.061C461.524 204.829 461.01 205.049 460.631 205.439C460.252 205.829 460.039 206.357 460.039 206.907V224.721C460.038 224.994 460.09 225.264 460.191 225.517C460.293 225.769 460.441 225.998 460.629 226.191C460.817 226.385 461.04 226.538 461.286 226.643C461.532 226.747 461.795 226.802 462.061 226.802H479.447C479.985 226.802 480.501 226.582 480.882 226.192C481.262 225.802 481.476 225.273 481.477 224.721V206.907C481.475 206.356 481.261 205.828 480.88 205.438C480.5 205.048 479.985 204.828 479.447 204.827Z" fill="white"/>
<path d="M479.447 235.197H462.061C461.524 235.198 461.01 235.419 460.631 235.809C460.252 236.199 460.039 236.727 460.039 237.277V255.091C460.038 255.364 460.09 255.634 460.191 255.886C460.293 256.139 460.441 256.368 460.629 256.561C460.817 256.754 461.04 256.908 461.286 257.013C461.532 257.117 461.795 257.171 462.061 257.172H479.447C479.985 257.172 480.501 256.952 480.882 256.562C481.262 256.172 481.476 255.643 481.477 255.091V237.277C481.475 236.726 481.261 236.198 480.88 235.808C480.5 235.418 479.985 235.198 479.447 235.197Z" fill="#6C63FF"/>
<path d="M479.447 265.567H462.061C461.795 265.567 461.532 265.621 461.286 265.726C461.04 265.83 460.817 265.984 460.629 266.177C460.441 266.37 460.293 266.6 460.191 266.852C460.09 267.104 460.038 267.374 460.039 267.647V285.461C460.038 285.734 460.09 286.004 460.191 286.256C460.293 286.509 460.441 286.738 460.629 286.931C460.817 287.124 461.04 287.278 461.286 287.383C461.532 287.487 461.795 287.542 462.061 287.542H479.447C479.985 287.542 480.501 287.322 480.882 286.932C481.262 286.542 481.476 286.013 481.477 285.461V267.647C481.476 267.095 481.262 266.566 480.882 266.176C480.501 265.786 479.985 265.567 479.447 265.567Z" fill="#E6E6E6"/>
<path d="M515.951 144.087H498.565C498.028 144.089 497.514 144.309 497.135 144.699C496.756 145.089 496.543 145.617 496.543 146.167V163.989C496.544 164.539 496.757 165.066 497.136 165.455C497.515 165.844 498.029 166.062 498.565 166.062H515.951C516.488 166.062 517.003 165.844 517.384 165.456C517.764 165.067 517.979 164.54 517.981 163.989V146.167C517.979 145.616 517.765 145.088 517.384 144.698C517.004 144.308 516.489 144.089 515.951 144.087Z" fill="white"/>
<path d="M515.951 174.457H498.565C498.028 174.459 497.514 174.679 497.135 175.069C496.756 175.459 496.543 175.987 496.543 176.537V194.359C496.544 194.909 496.757 195.436 497.136 195.825C497.515 196.213 498.029 196.432 498.565 196.432H515.951C516.488 196.432 517.003 196.214 517.384 195.826C517.764 195.437 517.979 194.91 517.981 194.359V176.537C517.979 175.986 517.765 175.458 517.384 175.068C517.004 174.678 516.489 174.458 515.951 174.457Z" fill="white"/>
<path d="M515.951 204.827H498.565C498.028 204.829 497.514 205.049 497.135 205.439C496.756 205.829 496.543 206.357 496.543 206.907V224.721C496.543 224.994 496.594 225.264 496.696 225.517C496.797 225.769 496.946 225.998 497.134 226.191C497.321 226.385 497.544 226.538 497.79 226.643C498.036 226.747 498.299 226.802 498.565 226.802H515.951C516.489 226.802 517.005 226.582 517.386 226.192C517.766 225.802 517.98 225.273 517.981 224.721V206.907C517.979 206.356 517.765 205.828 517.384 205.438C517.004 205.048 516.489 204.828 515.951 204.827Z" fill="#6C63FF"/>
<path d="M515.951 235.197H498.565C498.028 235.198 497.514 235.419 497.135 235.809C496.756 236.199 496.543 236.727 496.543 237.277V255.091C496.543 255.364 496.594 255.634 496.696 255.886C496.797 256.139 496.946 256.368 497.134 256.561C497.321 256.754 497.544 256.908 497.79 257.013C498.036 257.117 498.299 257.171 498.565 257.172H515.951C516.489 257.171 517.005 256.952 517.386 256.562C517.767 256.172 517.98 255.643 517.981 255.091V237.277C517.979 236.726 517.765 236.198 517.384 235.808C517.004 235.418 516.489 235.198 515.951 235.197Z" fill="#E6E6E6"/>
<path d="M515.951 265.567H498.565C498.299 265.567 498.036 265.621 497.79 265.726C497.544 265.83 497.321 265.984 497.134 266.177C496.946 266.37 496.797 266.6 496.696 266.852C496.594 267.104 496.543 267.374 496.543 267.647V285.461C496.543 285.734 496.594 286.004 496.696 286.256C496.797 286.509 496.946 286.738 497.134 286.931C497.321 287.124 497.544 287.278 497.79 287.383C498.036 287.487 498.299 287.542 498.565 287.542H515.951C516.489 287.542 517.005 287.322 517.386 286.932C517.767 286.542 517.98 286.013 517.981 285.461V267.647C517.98 267.095 517.767 266.566 517.386 266.176C517.005 265.786 516.489 265.567 515.951 265.567Z" fill="white"/>
<path d="M552.456 144.087H535.07C534.533 144.089 534.018 144.309 533.639 144.699C533.26 145.089 533.048 145.617 533.048 146.167V163.989C533.048 164.539 533.261 165.066 533.64 165.455C534.019 165.844 534.534 166.062 535.07 166.062H552.456C552.993 166.062 553.508 165.844 553.889 165.456C554.269 165.067 554.484 164.54 554.486 163.989V146.167C554.484 145.616 554.27 145.088 553.889 144.698C553.509 144.308 552.994 144.089 552.456 144.087Z" fill="#6C63FF"/>
<path d="M552.456 174.457H535.07C534.533 174.459 534.018 174.679 533.639 175.069C533.26 175.459 533.048 175.987 533.048 176.537V194.359C533.048 194.909 533.261 195.436 533.64 195.825C534.019 196.213 534.534 196.432 535.07 196.432H552.456C552.993 196.432 553.508 196.214 553.889 195.826C554.269 195.437 554.484 194.91 554.486 194.359V176.537C554.484 175.986 554.27 175.458 553.889 175.068C553.509 174.678 552.994 174.458 552.456 174.457Z" fill="#6C63FF"/>
<path d="M552.456 204.827H535.07C534.533 204.829 534.018 205.049 533.639 205.439C533.26 205.829 533.048 206.357 533.048 206.907V224.721C533.047 224.994 533.099 225.264 533.2 225.517C533.301 225.769 533.45 225.998 533.638 226.191C533.826 226.385 534.049 226.538 534.295 226.643C534.54 226.747 534.804 226.802 535.07 226.802H552.456C552.994 226.802 553.51 226.582 553.891 226.192C554.271 225.802 554.485 225.273 554.486 224.721V206.907C554.484 206.356 554.27 205.828 553.889 205.438C553.509 205.048 552.994 204.828 552.456 204.827Z" fill="#E6E6E6"/>
<path d="M552.456 235.197H535.07C534.533 235.198 534.018 235.419 533.639 235.809C533.26 236.199 533.048 236.727 533.048 237.277V255.091C533.047 255.364 533.099 255.634 533.2 255.886C533.301 256.139 533.45 256.368 533.638 256.561C533.826 256.754 534.049 256.908 534.295 257.013C534.54 257.117 534.804 257.171 535.07 257.172H552.456C552.994 257.171 553.51 256.952 553.891 256.562C554.272 256.172 554.485 255.643 554.486 255.091V237.277C554.484 236.726 554.27 236.198 553.889 235.808C553.509 235.418 552.994 235.198 552.456 235.197Z" fill="white"/>
<path d="M552.456 265.567H535.07C534.804 265.567 534.54 265.621 534.295 265.726C534.049 265.83 533.826 265.984 533.638 266.177C533.45 266.37 533.301 266.6 533.2 266.852C533.099 267.104 533.047 267.374 533.048 267.647V285.461C533.047 285.734 533.099 286.004 533.2 286.256C533.301 286.509 533.45 286.738 533.638 286.931C533.826 287.124 534.049 287.278 534.295 287.383C534.54 287.487 534.804 287.542 535.07 287.542H552.456C552.994 287.542 553.51 287.322 553.891 286.932C554.272 286.542 554.485 286.013 554.486 285.461V267.647C554.485 267.095 554.272 266.566 553.891 266.176C553.51 265.786 552.994 265.567 552.456 265.567Z" fill="#6C63FF"/>
<path d="M262.381 528.213H261.899L262.311 528.157L262.381 528.213Z" fill="#2F2E41"/>
<path d="M220.788 196.108C250.246 196.108 274.126 171.629 274.126 141.432C274.126 111.236 250.246 86.7571 220.788 86.7571C191.331 86.7571 167.451 111.236 167.451 141.432C167.451 171.629 191.331 196.108 220.788 196.108Z" fill="#FFB6B6"/>
<path d="M267.498 101.345C267.498 101.345 281.448 74.0077 250.757 71.5224C250.757 71.5224 224.592 47.1926 197.924 67.0746C197.924 67.0746 183.377 67.0746 175.422 83.9486C175.422 83.9486 163.981 79.5008 161.467 91.4044C161.467 91.4044 153.096 116.257 161.467 138.624C169.839 160.991 172.62 163.477 172.62 163.477C172.62 163.477 158.863 116.582 192.347 114.097C225.831 111.612 263.301 90.1618 266.091 117.499C268.882 144.837 273.081 151.573 273.081 151.573C273.081 151.573 299.585 112.529 267.498 101.345Z" fill="#2F2E41"/>
<path d="M358.761 276.178L358.589 277.106L356.661 287.542L343.335 359.725L342.546 363.975L340.891 372.962L338.627 385.222L333.607 412.39L332.171 420.177L331.632 423.098L331.445 424.122L329.954 432.181L329.501 434.614L325.863 462.247L322.686 486.327L333.319 497.226L326.979 503.724L322.818 528.156L322.826 528.212H153.004C146.134 523.651 139.363 518.948 132.691 514.104L134.088 503.38C134.088 503.38 138.897 484.23 136.875 481.941C134.861 479.652 130.443 475.563 130.443 475.563L136.009 462.247L136.782 460.398L135.486 432.845L135.455 432.181L135.025 423.098L134.971 421.93L134.885 420.177L133.237 385.222L133.206 384.645L132.707 374.05L132.238 363.975L132.035 359.725L130.029 317.207L128.671 288.334L127.484 263.198L132.254 261.541L183.272 243.767L204.404 215.606L248.388 215.942L269.919 216.11L305.846 250.265L314.02 254.267L314.083 254.299L319.945 257.172L334.81 264.446L350.525 272.145L358.589 276.09L358.761 276.178Z" fill="#CACACA"/>
<path d="M210.089 446.187C206.866 447.467 203.408 448.007 199.959 447.769C196.51 447.531 193.154 446.52 190.128 444.809C187.101 443.098 184.477 440.727 182.441 437.863C180.405 435 179.006 431.714 178.343 428.237L95.1543 416.138L124.073 382.606L198.637 399.236C204.41 398.481 210.252 399.923 215.057 403.288C219.862 406.654 223.295 411.71 224.707 417.497C226.119 423.284 225.41 429.401 222.716 434.689C220.022 439.977 215.529 444.068 210.089 446.187V446.187Z" fill="#FFB6B6"/>
<path d="M172.998 385.222C171.457 383.219 169.275 381.839 166.838 381.324L132.707 374.05L129.201 373.306C127.164 372.87 125.24 371.998 123.554 370.747C121.869 369.497 120.46 367.895 119.419 366.047C118.34 364.108 117.688 361.95 117.507 359.725C117.344 357.703 117.58 355.667 118.202 353.739L130.029 317.207L137.703 293.504C138.633 290.645 139.182 287.67 139.335 284.661C139.762 276.332 137.248 268.125 132.254 261.541C127.863 255.755 121.772 251.569 114.882 249.604C107.993 247.638 100.669 247.996 93.9925 250.626C93.7974 250.698 93.5944 250.778 93.3992 250.858C88.6115 252.817 84.334 255.892 80.9048 259.837C77.4755 263.783 74.9884 268.493 73.6402 273.593L65.3025 304.683L48.104 368.776C46.3824 375.198 46.0346 381.925 47.0844 388.497C48.1342 395.069 50.5569 401.331 54.1866 406.855C57.8162 412.378 62.5673 417.032 68.1144 420.499C73.6616 423.965 79.8739 426.162 86.3262 426.939L135.486 432.845L158.235 435.582C160.865 435.906 163.519 435.203 165.666 433.611C167.813 432.02 169.296 429.658 169.82 426.995C169.857 426.851 169.886 426.704 169.906 426.555L170.453 423.098L175.082 393.985L175.129 393.688C175.37 392.203 175.305 390.682 174.938 389.224C174.571 387.766 173.91 386.402 172.998 385.222Z" fill="#CACACA"/>
<path d="M263.076 447.12C266.443 447.921 269.941 447.956 273.322 447.222C276.704 446.488 279.887 445.002 282.648 442.871C285.409 440.739 287.68 438.012 289.302 434.884C290.924 431.755 291.857 428.299 292.035 424.761L372.728 400.758L339.485 371.741L267.955 398.983C262.136 399.07 256.55 401.342 252.256 405.369C247.962 409.395 245.258 414.897 244.657 420.83C244.056 426.764 245.599 432.717 248.993 437.563C252.388 442.408 257.399 445.809 263.076 447.12V447.12Z" fill="#FFB6B6"/>
<path d="M412.792 347.065L374.414 256.524C371.274 249.09 365.668 243.037 358.589 239.438C356.401 238.334 354.103 237.475 351.735 236.877C351.368 236.781 351.001 236.693 350.634 236.621C345.612 235.498 340.404 235.596 335.426 236.909C330.876 238.107 326.624 240.275 322.946 243.272C319.268 246.268 316.248 250.025 314.082 254.299C314.059 254.334 314.038 254.372 314.02 254.411C311.601 259.208 310.314 264.521 310.264 269.921C310.214 275.321 311.401 280.657 313.731 285.501L314.207 286.477L341.328 342.312C342.254 344.221 342.776 346.309 342.859 348.44C342.943 350.57 342.586 352.695 341.812 354.674C341.038 356.653 339.864 358.442 338.368 359.924C336.872 361.405 335.087 362.546 333.131 363.27L331.226 363.975L296.97 376.659C294.399 377.599 292.285 379.525 291.072 382.031C289.859 384.537 289.642 387.428 290.467 390.095L290.553 390.375L300.155 421.874C300.202 422.018 300.249 422.162 300.303 422.306C300.388 422.577 300.492 422.842 300.615 423.098C301.636 425.444 303.44 427.34 305.702 428.445C307.965 429.549 310.538 429.79 312.958 429.124L331.445 424.122L335.215 423.098L382.954 410.174C389.236 408.472 395.084 405.399 400.1 401.166C405.115 396.932 409.179 391.637 412.012 385.644C414.846 379.651 416.382 373.1 416.517 366.442C416.652 359.783 415.381 353.173 412.792 347.065L412.792 347.065Z" fill="#CACACA"/>
<path d="M35.0513 423.098C46.1139 436.93 58.0446 450.007 70.7675 462.247H423.613C427.012 462.252 430.271 463.64 432.674 466.104C435.077 468.569 436.428 471.91 436.431 475.395L436.939 567.049C458.645 556.826 478.973 543.773 497.418 528.212C502.54 523.899 507.502 519.399 512.306 514.712C515.452 511.655 518.523 508.523 521.518 505.317C543.973 481.337 562.157 453.51 575.244 423.098H35.0513Z" fill="#3F3D56"/>
<path d="M521.517 505.317C518.527 508.526 515.457 511.658 512.305 514.712H437.196V505.317H521.517Z" fill="white"/>
<path d="M358.059 204.827C357.688 204.125 357.138 203.538 356.469 203.13C355.8 202.721 355.035 202.506 354.257 202.506H98.3177C97.1702 202.509 96.0707 202.978 95.26 203.811C94.4493 204.643 93.9936 205.771 93.9927 206.947V363.975H358.589V206.947C358.593 206.205 358.411 205.475 358.059 204.827Z" fill="#3F3D56"/>
<path d="M93.7607 359.723V379.101C93.7607 379.904 93.9151 380.7 94.215 381.442C94.5149 382.184 94.9544 382.858 95.5085 383.426C96.0627 383.994 96.7205 384.445 97.4445 384.752C98.1685 385.06 98.9445 385.218 99.7281 385.218H197.389V423.46H196.092C195.99 423.46 195.889 423.48 195.795 423.52C195.701 423.56 195.615 423.619 195.543 423.692C195.471 423.766 195.414 423.854 195.375 423.95C195.336 424.047 195.316 424.15 195.316 424.254V426.914C195.316 427.019 195.336 427.122 195.375 427.218C195.414 427.315 195.471 427.402 195.543 427.476C195.615 427.55 195.701 427.608 195.795 427.648C195.889 427.688 195.99 427.709 196.092 427.709H256.718C256.82 427.709 256.921 427.688 257.015 427.648C257.109 427.608 257.194 427.55 257.266 427.476C257.338 427.402 257.395 427.315 257.434 427.218C257.473 427.122 257.493 427.019 257.493 426.914V424.254C257.493 424.15 257.473 424.047 257.434 423.95C257.395 423.854 257.338 423.766 257.266 423.692C257.194 423.619 257.109 423.56 257.015 423.52C256.921 423.48 256.82 423.46 256.718 423.46H255.421V385.218H353.081C353.865 385.218 354.641 385.06 355.365 384.752C356.089 384.445 356.747 383.994 357.301 383.426C357.855 382.858 358.295 382.184 358.595 381.442C358.895 380.7 359.049 379.904 359.049 379.101V359.723H93.7607Z" fill="#3F3D56"/>
<path d="M223.199 304.108C236.697 304.108 247.64 292.891 247.64 279.054C247.64 265.218 236.697 254.001 223.199 254.001C209.701 254.001 198.759 265.218 198.759 279.054C198.759 292.891 209.701 304.108 223.199 304.108Z" fill="#6C63FF"/>
<path d="M285.471 138.445H281.567C281.567 108.195 252.362 88.3726 222.899 88.3565C218.614 88.3437 214.338 88.77 210.135 89.629C205.404 90.5973 200.493 91.7577 195.669 93.2702C176.644 99.2481 159 110.804 159 138.445C158.996 143.813 159.662 149.16 160.983 154.354L157.205 155.362C155.803 149.838 155.095 144.153 155.097 138.445C155.097 114.293 164.769 97.7036 181.476 87.8124C190.259 82.6107 200.977 79.2576 213.258 77.625C218.368 76.9281 223.534 76.7673 228.676 77.1449C262.558 79.6417 285.471 106.274 285.471 138.445Z" fill="#6C63FF"/>
<path d="M291.974 140.662L290.436 129.01C290.057 126.067 288.674 123.357 286.532 121.359C285.158 120.057 283.512 119.092 281.72 118.537C279.928 117.983 278.036 117.853 276.188 118.158L273.745 118.502C273.076 118.593 272.432 118.818 271.849 119.166C271.266 119.513 270.756 119.976 270.349 120.527C269.938 121.076 269.638 121.704 269.465 122.373C269.292 123.041 269.25 123.739 269.342 124.424L272.894 151.265C273.04 152.359 273.518 153.378 274.261 154.178C275.004 154.978 275.973 155.518 277.031 155.723C277.345 155.787 277.664 155.819 277.984 155.819C278.214 155.819 278.443 155.803 278.671 155.771L281.403 155.394C283.069 155.168 284.672 154.595 286.114 153.71C287.556 152.825 288.806 151.647 289.788 150.249C289.999 149.945 290.202 149.633 290.389 149.312C291.852 146.694 292.411 143.646 291.974 140.662Z" fill="#6C63FF"/>
<path d="M272.168 118.991C271.451 119.348 270.827 119.874 270.349 120.527C269.938 121.076 269.638 121.704 269.465 122.372C269.292 123.041 269.25 123.739 269.342 124.424L272.894 151.265C273.04 152.359 273.518 153.378 274.261 154.178C275.004 154.978 275.973 155.518 277.031 155.723L272.168 118.991Z" fill="white"/>
<path d="M291.974 140.662L290.436 129.01C290.056 126.067 288.674 123.357 286.532 121.359L290.069 148.064C290.122 148.493 290.229 148.913 290.389 149.313C291.852 146.694 292.411 143.646 291.974 140.662Z" fill="#3F3D56"/>
<path d="M279.819 149.057C280.887 148.908 281.424 146.303 281.018 143.237C280.612 140.171 279.418 137.806 278.349 137.955C277.281 138.103 276.744 140.709 277.15 143.775C277.556 146.841 278.751 149.205 279.819 149.057Z" fill="#3F3D56"/>
<path d="M277.476 134.652C278.545 134.504 279.081 131.898 278.676 128.832C278.27 125.767 277.075 123.402 276.007 123.55C274.939 123.699 274.402 126.304 274.808 129.37C275.214 132.436 276.408 134.801 277.476 134.652Z" fill="#3F3D56"/>
<path d="M292.31 140.254C293.378 140.106 293.915 137.5 293.509 134.434C293.103 131.368 291.909 129.004 290.84 129.152C289.772 129.301 289.235 131.906 289.641 134.972C290.047 138.038 291.242 140.403 292.31 140.254Z" fill="#3F3D56"/>
<path d="M222.899 88.3565C218.614 88.3437 214.338 88.77 210.135 89.629C205.404 90.5973 200.493 91.7577 195.669 93.2701C188.135 92.894 182.592 90.8934 181.476 87.8124C190.259 82.6107 200.977 79.2576 213.258 77.625C218.368 76.9281 223.534 76.7673 228.676 77.1449C229.22 77.472 229.691 77.9135 230.057 78.4404C230.423 78.9673 230.676 79.5676 230.799 80.2019C231.166 82.9868 228.067 85.9477 222.899 88.3565Z" fill="#3F3D56"/>
<path d="M173.06 166.214L167.049 140.598C166.834 139.673 166.358 138.835 165.681 138.187C165.003 137.539 164.153 137.111 163.239 136.956C162.981 136.915 162.72 136.894 162.458 136.892C162.09 136.894 161.723 136.939 161.365 137.028L159.039 137.605C156.044 138.347 153.458 140.278 151.849 142.972C150.241 145.667 149.741 148.905 150.459 151.977L153.153 163.469C153.767 166.175 155.232 168.598 157.321 170.368C157.66 170.648 158.014 170.907 158.383 171.144C159.692 171.985 161.151 172.548 162.676 172.801C164.2 173.054 165.759 172.991 167.26 172.616L169.578 172.04C170.191 171.893 170.768 171.618 171.272 171.232C172.022 170.671 172.592 169.895 172.911 169.002C173.229 168.108 173.281 167.138 173.06 166.214Z" fill="#6C63FF"/>
<path d="M160.458 161.448C161.506 161.189 161.783 158.541 161.077 155.533C160.371 152.525 158.949 150.297 157.901 150.555C156.853 150.814 156.576 153.462 157.282 156.47C157.988 159.478 159.41 161.706 160.458 161.448Z" fill="#3F3D56"/>
<path d="M152.651 163.849C153.699 163.59 153.977 160.942 153.27 157.934C152.564 154.926 151.142 152.697 150.094 152.956C149.046 153.214 148.769 155.862 149.475 158.87C150.181 161.878 151.603 164.107 152.651 163.849Z" fill="#3F3D56"/>
<path d="M173.443 166.118L167.432 140.502C167.197 139.502 166.681 138.595 165.946 137.894C165.211 137.194 164.292 136.731 163.302 136.564L171.507 171.552C172.317 170.943 172.933 170.103 173.278 169.136C173.623 168.169 173.68 167.118 173.443 166.118Z" fill="white"/>
<path d="M151.818 146.904C151.652 146.191 151.341 145.523 150.905 144.943C150.059 147.186 149.904 149.641 150.46 151.977L153.153 163.469C153.768 166.175 155.233 168.598 157.322 170.367L151.818 146.904Z" fill="#3F3D56"/>
</g>
<defs>
<clipPath id="clip0_69_1526">
<rect width="664" height="592.858" fill="white"/>
</clipPath>
</defs>
</svg>
