<svg width="200" height="200" viewBox="0 0 200 200" fill="none" xmlns="http://www.w3.org/2000/svg">
<path d="M70.8333 33.3337C67.5503 33.3337 64.2994 33.9803 61.2663 35.2367C58.2331 36.493 55.4771 38.3345 53.1557 40.656C50.8342 42.9775 48.9927 45.7334 47.7363 48.7666C46.48 51.7997 45.8333 55.0506 45.8333 58.3337C45.8333 61.6167 46.48 64.8676 47.7363 67.9007C48.9927 70.9339 50.8342 73.6899 53.1557 76.0113C55.4771 78.3328 58.2331 80.1743 61.2663 81.4306C64.2994 82.687 67.5503 83.3337 70.8333 83.3337C77.4637 83.3337 83.8226 80.6997 88.511 76.0113C93.1994 71.3229 95.8333 64.9641 95.8333 58.3337C95.8333 51.7032 93.1994 45.3444 88.511 40.656C83.8226 35.9676 77.4637 33.3337 70.8333 33.3337ZM29.1667 58.3337C29.1667 47.283 33.5565 36.6849 41.3706 28.8709C49.1846 21.0569 59.7826 16.667 70.8333 16.667C81.884 16.667 92.4821 21.0569 100.296 28.8709C108.11 36.6849 112.5 47.283 112.5 58.3337C112.5 69.3843 108.11 79.9824 100.296 87.7964C92.4821 95.6105 81.884 100 70.8333 100C59.7826 100 49.1846 95.6105 41.3706 87.7964C33.5565 79.9824 29.1667 69.3843 29.1667 58.3337ZM171.442 47.067L175.583 54.292C180.662 63.1364 183.333 73.1578 183.33 83.3567C183.327 93.5556 180.65 103.575 175.567 112.417L171.408 119.642L156.967 111.334L161.117 104.109C164.748 97.7938 166.661 90.6372 166.664 83.3525C166.667 76.0679 164.76 68.9097 161.133 62.592L156.983 55.367L171.442 47.067ZM146.15 61.5837L150.292 68.817C152.832 73.238 154.168 78.2475 154.168 83.3462C154.168 88.4448 152.832 93.4543 150.292 97.8753L146.125 105.1L131.683 96.792L135.833 89.567C136.924 87.672 137.497 85.524 137.497 83.3378C137.497 81.1516 136.924 79.0037 135.833 77.1087L131.692 69.8837L146.15 61.5837ZM3.8147e-06 158.334C3.8147e-06 147.283 4.38987 136.685 12.2039 128.871C20.0179 121.057 30.616 116.667 41.6667 116.667H100C111.051 116.667 121.649 121.057 129.463 128.871C137.277 136.685 141.667 147.283 141.667 158.334V175H125V158.334C125 151.703 122.366 145.344 117.678 140.656C112.989 135.968 106.63 133.334 100 133.334H41.6667C35.0363 133.334 28.6774 135.968 23.989 140.656C19.3006 145.344 16.6667 151.703 16.6667 158.334V175H3.8147e-06V158.334Z" fill="#39424E"/>
</svg>
