<svg width="614" height="464" viewBox="0 0 614 464" fill="none" xmlns="http://www.w3.org/2000/svg">
<g clip-path="url(#clip0_781_670)">
<path d="M353.831 22.583C359.097 33.803 347.937 36.9811 335.153 42.9949C322.37 49.0087 312.803 55.5809 307.536 44.3609C302.27 33.1409 297.996 10.8711 316.081 2.36355C334.789 -6.4371 348.564 11.3629 353.831 22.583Z" fill="#2F2E41"/>
<path d="M327.748 44.6488C337.253 44.6488 344.958 36.9353 344.958 27.4201C344.958 17.905 337.253 10.1914 327.748 10.1914C318.243 10.1914 310.538 17.905 310.538 27.4201C310.538 36.9353 318.243 44.6488 327.748 44.6488Z" fill="#FFB8B8"/>
<path d="M413.008 103.826C412.413 103.047 411.817 102.283 411.215 101.539C410.437 100.571 409.655 99.6334 408.867 98.7262C399.947 88.4216 390.46 81.9331 380.013 81.2386H379.999L379.844 81.2246L359.027 101.539L351.95 108.441L352.104 108.82L355.923 118.339H422.832C419.817 113.33 416.538 108.486 413.008 103.826Z" fill="#2F2E41"/>
<path d="M309.034 34.3563L315.194 31.4583L314.336 22.5614L318.455 29.9241L321.4 28.539L320.899 23.3491L323.302 27.644L345.181 17.3517C343.126 12.9739 339.418 9.59261 334.873 7.95167C330.328 6.31074 325.318 6.54456 320.945 8.60171L317.774 10.0934C313.401 12.1505 310.023 15.8625 308.384 20.4127C306.745 24.9629 306.979 29.9786 309.034 34.3563Z" fill="#2F2E41"/>
<path d="M451.617 347.085H92.2729C89.2077 347.081 86.269 345.861 84.1015 343.691C81.9341 341.521 80.7149 338.579 80.7114 335.511V119.352C80.7139 117.104 81.6071 114.948 83.195 113.359C84.7828 111.769 86.9357 110.875 89.1814 110.872H454.562C456.846 110.875 459.036 111.784 460.652 113.402C462.267 115.019 463.176 117.211 463.178 119.498V335.511C463.175 338.579 461.956 341.521 459.788 343.691C457.621 345.861 454.682 347.081 451.617 347.085Z" fill="#F2F2F2"/>
<path d="M103.484 335.511H440.406C443.379 335.511 446.231 334.329 448.333 332.224C450.436 330.119 451.617 327.264 451.617 324.288V140.821C451.617 137.844 450.436 134.99 448.333 132.885C446.231 130.78 443.379 129.598 440.406 129.598H103.484C100.511 129.598 97.6591 130.78 95.5566 132.885C93.4541 134.99 92.2729 137.844 92.2729 140.821V324.288C92.2729 327.264 93.4541 330.119 95.5566 332.224C97.6591 334.329 100.511 335.511 103.484 335.511Z" fill="white"/>
<path d="M463.017 118.689H80.5492V112.797C80.5536 109.718 81.7778 106.766 83.9532 104.59C86.1285 102.414 89.0773 101.19 92.1528 101.188H451.414C454.489 101.19 457.438 102.414 459.613 104.59C461.789 106.766 463.013 109.718 463.017 112.797V118.689Z" fill="#6C63FF"/>
<path d="M101.637 112.961C103.294 112.961 104.638 111.615 104.638 109.956C104.638 108.296 103.294 106.951 101.637 106.951C99.9793 106.951 98.6355 108.296 98.6355 109.956C98.6355 111.615 99.9793 112.961 101.637 112.961Z" fill="white"/>
<path d="M113.029 112.961C114.687 112.961 116.031 111.615 116.031 109.956C116.031 108.296 114.687 106.951 113.029 106.951C111.372 106.951 110.028 108.296 110.028 109.956C110.028 111.615 111.372 112.961 113.029 112.961Z" fill="white"/>
<path d="M124.422 112.961C126.079 112.961 127.423 111.615 127.423 109.956C127.423 108.296 126.079 106.951 124.422 106.951C122.764 106.951 121.42 108.296 121.42 109.956C121.42 111.615 122.764 112.961 124.422 112.961Z" fill="white"/>
<path d="M282.458 295.723H252.328C250.563 295.721 248.871 295.019 247.623 293.769C246.375 292.52 245.673 290.826 245.671 289.059V258.896C245.673 257.13 246.375 255.436 247.623 254.186C248.871 252.937 250.563 252.234 252.328 252.232H282.458C284.223 252.234 285.914 252.937 287.162 254.186C288.41 255.436 289.112 257.13 289.114 258.896V289.059C289.112 290.826 288.41 292.52 287.162 293.769C285.914 295.019 284.223 295.721 282.458 295.723ZM252.328 253.635C250.934 253.637 249.599 254.192 248.613 255.178C247.628 256.164 247.074 257.502 247.073 258.896V289.059C247.074 290.454 247.628 291.791 248.613 292.778C249.599 293.764 250.934 294.319 252.328 294.32H282.458C283.851 294.319 285.187 293.764 286.172 292.778C287.157 291.791 287.711 290.454 287.713 289.059V258.896C287.711 257.502 287.157 256.164 286.172 255.178C285.187 254.192 283.851 253.637 282.458 253.635H252.328Z" fill="#CCCCCC"/>
<path d="M276.502 287.305H258.284C257.726 287.304 257.192 287.083 256.798 286.688C256.404 286.294 256.182 285.759 256.182 285.201V262.754C256.182 262.196 256.404 261.661 256.798 261.266C257.192 260.872 257.726 260.65 258.284 260.649H271.484C271.963 260.65 272.428 260.814 272.801 261.114L277.818 265.15C278.064 265.346 278.262 265.596 278.398 265.88C278.534 266.164 278.605 266.475 278.604 266.79V285.201C278.603 285.759 278.382 286.294 277.988 286.688C277.593 287.083 277.059 287.304 276.502 287.305ZM258.284 262.052C258.098 262.053 257.92 262.127 257.789 262.258C257.657 262.39 257.583 262.568 257.583 262.754V285.201C257.583 285.387 257.657 285.565 257.789 285.696C257.92 285.828 258.098 285.902 258.284 285.902H276.502C276.688 285.902 276.866 285.828 276.997 285.696C277.128 285.565 277.202 285.387 277.203 285.201V266.79C277.203 266.685 277.179 266.581 277.134 266.487C277.089 266.392 277.023 266.309 276.941 266.243L271.923 262.207C271.799 262.107 271.644 262.052 271.484 262.052H258.284Z" fill="#CCCCCC"/>
<path d="M272.998 270.47H261.787C261.601 270.47 261.423 270.396 261.292 270.265C261.16 270.133 261.086 269.955 261.086 269.769C261.086 269.583 261.16 269.404 261.292 269.273C261.423 269.141 261.601 269.067 261.787 269.067H272.998C273.184 269.067 273.362 269.141 273.494 269.273C273.625 269.404 273.699 269.583 273.699 269.769C273.699 269.955 273.625 270.133 273.494 270.265C273.362 270.396 273.184 270.47 272.998 270.47Z" fill="#CCCCCC"/>
<path d="M272.998 274.679H261.787C261.601 274.679 261.423 274.605 261.292 274.474C261.16 274.342 261.086 274.164 261.086 273.978C261.086 273.792 261.16 273.613 261.292 273.482C261.423 273.35 261.601 273.276 261.787 273.276H272.998C273.184 273.276 273.362 273.35 273.494 273.482C273.625 273.613 273.699 273.792 273.699 273.978C273.699 274.164 273.625 274.342 273.494 274.474C273.362 274.605 273.184 274.679 272.998 274.679Z" fill="#CCCCCC"/>
<path d="M272.998 278.888H261.787C261.601 278.888 261.423 278.814 261.292 278.683C261.16 278.551 261.086 278.373 261.086 278.187C261.086 278.001 261.16 277.822 261.292 277.691C261.423 277.559 261.601 277.485 261.787 277.485H272.998C273.184 277.485 273.362 277.559 273.494 277.691C273.625 277.822 273.699 278.001 273.699 278.187C273.699 278.373 273.625 278.551 273.494 278.683C273.362 278.814 273.184 278.888 272.998 278.888Z" fill="#CCCCCC"/>
<path d="M353.929 295.723H323.799C322.034 295.721 320.342 295.019 319.094 293.769C317.846 292.52 317.144 290.826 317.142 289.059V258.896C317.144 257.13 317.846 255.436 319.094 254.186C320.342 252.937 322.034 252.234 323.799 252.232H353.929C355.694 252.234 357.386 252.937 358.633 254.186C359.881 255.436 360.583 257.13 360.585 258.896V289.059C360.583 290.826 359.881 292.52 358.633 293.769C357.386 295.019 355.694 295.721 353.929 295.723ZM323.799 253.635C322.406 253.637 321.07 254.192 320.084 255.178C319.099 256.164 318.545 257.502 318.544 258.896V289.059C318.545 290.454 319.099 291.791 320.084 292.778C321.07 293.764 322.406 294.319 323.799 294.32H353.929C355.322 294.319 356.658 293.764 357.643 292.778C358.628 291.791 359.182 290.454 359.184 289.059V258.896C359.182 257.502 358.628 256.164 357.643 255.178C356.658 254.192 355.322 253.637 353.929 253.635H323.799Z" fill="#CCCCCC"/>
<path d="M348.673 281.694H329.054C328.497 281.693 327.962 281.471 327.568 281.077C327.174 280.682 326.953 280.148 326.952 279.59V268.366C326.953 267.808 327.174 267.273 327.568 266.879C327.962 266.484 328.497 266.262 329.054 266.262H348.673C349.231 266.262 349.765 266.484 350.159 266.879C350.553 267.273 350.775 267.808 350.776 268.366V279.59C350.775 280.148 350.553 280.682 350.159 281.077C349.765 281.471 349.231 281.693 348.673 281.694ZM329.054 267.665C328.868 267.665 328.69 267.739 328.559 267.87C328.427 268.002 328.353 268.18 328.353 268.366V279.59C328.353 279.776 328.427 279.954 328.559 280.085C328.69 280.217 328.868 280.291 329.054 280.291H348.673C348.859 280.291 349.037 280.217 349.169 280.085C349.3 279.954 349.374 279.776 349.374 279.59V268.366C349.374 268.18 349.3 268.002 349.169 267.87C349.037 267.739 348.859 267.665 348.673 267.665H329.054Z" fill="#CCCCCC"/>
<path d="M338.864 275.828C338.47 275.829 338.084 275.719 337.75 275.511L327.281 268.961C327.124 268.862 327.012 268.705 326.971 268.524C326.929 268.343 326.961 268.152 327.059 267.995C327.158 267.837 327.315 267.725 327.496 267.683C327.676 267.641 327.867 267.673 328.024 267.771L338.493 274.321C338.604 274.39 338.733 274.427 338.864 274.427C338.995 274.427 339.124 274.39 339.235 274.321L349.703 267.771C349.861 267.673 350.051 267.641 350.232 267.683C350.413 267.725 350.57 267.837 350.668 267.995C350.766 268.152 350.798 268.343 350.757 268.524C350.715 268.705 350.604 268.862 350.446 268.961L339.978 275.511C339.644 275.719 339.258 275.829 338.864 275.828Z" fill="#CCCCCC"/>
<path d="M210.987 295.723H180.857C179.092 295.721 177.4 295.019 176.152 293.769C174.904 292.52 174.202 290.826 174.2 289.059V258.896C174.202 257.13 174.904 255.436 176.152 254.186C177.4 252.937 179.092 252.234 180.857 252.232H210.987C212.752 252.234 214.444 252.937 215.691 254.186C216.939 255.436 217.641 257.13 217.643 258.896V289.059C217.641 290.826 216.939 292.52 215.691 293.769C214.444 295.019 212.752 295.721 210.987 295.723ZM180.857 253.635C179.464 253.637 178.128 254.192 177.143 255.178C176.157 256.164 175.603 257.502 175.602 258.896V289.059C175.603 290.454 176.157 291.791 177.143 292.778C178.128 293.764 179.464 294.319 180.857 294.32H210.987C212.38 294.319 213.716 293.764 214.701 292.778C215.686 291.791 216.24 290.454 216.242 289.059V258.896C216.24 257.502 215.686 256.164 214.701 255.178C213.716 254.192 212.38 253.637 210.987 253.635H180.857Z" fill="#CCCCCC"/>
<path d="M205.731 281.694H186.112C185.555 281.693 185.02 281.471 184.626 281.077C184.232 280.682 184.01 280.148 184.01 279.59V268.366C184.01 267.808 184.232 267.273 184.626 266.879C185.02 266.484 185.555 266.262 186.112 266.262H205.731C206.289 266.262 206.823 266.484 207.217 266.879C207.611 267.273 207.833 267.808 207.834 268.366V279.59C207.833 280.148 207.611 280.682 207.217 281.077C206.823 281.471 206.289 281.693 205.731 281.694ZM186.112 267.665C185.926 267.665 185.748 267.739 185.617 267.87C185.485 268.002 185.411 268.18 185.411 268.366V279.59C185.411 279.776 185.485 279.954 185.617 280.085C185.748 280.217 185.926 280.291 186.112 280.291H205.731C205.917 280.291 206.095 280.217 206.227 280.085C206.358 279.954 206.432 279.776 206.432 279.59V268.366C206.432 268.18 206.358 268.002 206.227 267.87C206.095 267.739 205.917 267.665 205.731 267.665H186.112Z" fill="#CCCCCC"/>
<path d="M202.622 281.694H188.521C188.275 281.694 188.033 281.629 187.82 281.506C187.607 281.383 187.43 281.206 187.307 280.992C187.184 280.779 187.119 280.537 187.12 280.291C187.12 280.045 187.184 279.803 187.307 279.589L191.555 272.224C191.678 272.011 191.855 271.834 192.068 271.71C192.281 271.587 192.522 271.522 192.768 271.522C193.014 271.522 193.256 271.587 193.469 271.71C193.682 271.834 193.859 272.011 193.982 272.224L196.725 276.981L198.315 274.225C198.438 274.012 198.615 273.835 198.828 273.711C199.041 273.588 199.282 273.523 199.528 273.523C199.774 273.523 200.016 273.588 200.229 273.711C200.442 273.835 200.619 274.012 200.742 274.225L203.836 279.589C203.959 279.803 204.023 280.045 204.023 280.291C204.023 280.537 203.959 280.779 203.836 280.992C203.713 281.206 203.536 281.383 203.323 281.506C203.11 281.629 202.868 281.694 202.622 281.694H202.622ZM202.622 280.291L199.528 274.926L197.332 278.734C197.271 278.841 197.182 278.93 197.076 278.991C196.969 279.053 196.849 279.085 196.725 279.085C196.602 279.085 196.482 279.053 196.375 278.991C196.269 278.93 196.18 278.841 196.119 278.734L192.769 272.925L188.521 280.291H202.622Z" fill="#CCCCCC"/>
<path d="M203.629 271.873C204.403 271.873 205.031 271.245 205.031 270.47C205.031 269.695 204.403 269.067 203.629 269.067C202.855 269.067 202.228 269.695 202.228 270.47C202.228 271.245 202.855 271.873 203.629 271.873Z" fill="#CCCCCC"/>
<path d="M538.713 454.655L530.122 454.654L526.036 421.483L538.714 421.484L538.713 454.655Z" fill="#FFB8B8"/>
<path d="M540.903 462.99L513.204 462.989V462.639C513.204 461.221 513.483 459.818 514.025 458.508C514.567 457.199 515.361 456.009 516.362 455.007C517.363 454.005 518.552 453.21 519.86 452.667C521.168 452.125 522.57 451.846 523.986 451.846H523.986L540.904 451.846L540.903 462.99Z" fill="#2F2E41"/>
<path d="M573.747 454.655L565.157 454.654L561.07 421.483L573.749 421.484L573.747 454.655Z" fill="#FFB8B8"/>
<path d="M575.938 462.99L548.239 462.989V462.639C548.239 461.221 548.518 459.818 549.06 458.508C549.602 457.199 550.396 456.009 551.397 455.007C552.398 454.005 553.587 453.21 554.895 452.667C556.203 452.125 557.605 451.846 559.02 451.846H559.021L575.939 451.846L575.938 462.99Z" fill="#2F2E41"/>
<path d="M571.172 440.275L563.216 437.852C562.623 437.672 562.096 437.321 561.702 436.843C561.307 436.365 561.062 435.78 560.998 435.163L553.58 364.788C553.574 364.703 553.537 364.623 553.474 364.565C553.412 364.507 553.33 364.474 553.245 364.474C553.16 364.466 553.075 364.492 553.008 364.545C552.941 364.599 552.898 364.676 552.887 364.761L540.463 432.943C540.388 433.357 540.231 433.751 540.001 434.103C539.771 434.455 539.473 434.758 539.125 434.993C538.777 435.228 538.385 435.392 537.973 435.473C537.561 435.555 537.137 435.553 536.725 435.468L526.557 433.371C525.811 433.215 525.147 432.795 524.686 432.188C524.225 431.581 523.998 430.827 524.047 430.066L531.605 318.314L582.852 312.778L575.237 437.447C575.188 438.249 574.835 439.001 574.252 439.552C573.668 440.103 572.897 440.411 572.095 440.413C571.782 440.413 571.471 440.366 571.172 440.275Z" fill="#2F2E41"/>
<path d="M571.123 220.995C580.628 220.995 588.333 213.282 588.333 203.767C588.333 194.252 580.628 186.538 571.123 186.538C561.619 186.538 553.914 194.252 553.914 203.767C553.914 213.282 561.619 220.995 571.123 220.995Z" fill="#FFB8B8"/>
<path d="M531.526 318.97L542.638 248.928C543.229 245.204 544.605 241.648 546.675 238.498C548.745 235.348 551.462 232.676 554.644 230.658C557.826 228.641 561.401 227.325 565.131 226.798C568.86 226.272 572.659 226.546 576.275 227.604C582.596 229.434 588.009 233.558 591.455 239.169C594.902 244.781 596.135 251.477 594.914 257.951L589.101 289.226L583.289 320.502L531.526 318.97Z" fill="#6C63FF"/>
<path d="M575.875 331.502C576.734 330.934 577.459 330.184 577.998 329.305C578.536 328.426 578.876 327.44 578.993 326.415C579.109 325.391 579 324.353 578.673 323.375C578.346 322.397 577.808 321.503 577.099 320.756L588.587 298.483L575.649 299.866L566.723 320.804C565.548 322.081 564.881 323.745 564.85 325.481C564.818 327.217 565.424 328.904 566.552 330.223C567.68 331.541 569.252 332.4 570.97 332.636C572.689 332.872 574.434 332.468 575.875 331.502V331.502Z" fill="#FFB8B8"/>
<path d="M578.335 316.827C577.699 316.737 577.106 316.456 576.634 316.02L572.239 311.954C571.764 311.512 571.436 310.936 571.299 310.301C571.162 309.667 571.223 309.007 571.474 308.408L580.259 287.562L579.013 246.372C579.192 245.048 579.63 243.772 580.302 242.618C580.974 241.463 581.866 240.453 582.929 239.644C583.991 238.835 585.202 238.243 586.493 237.903C587.784 237.563 589.129 237.481 590.451 237.662C591.774 237.842 593.047 238.282 594.2 238.956C595.353 239.63 596.361 240.524 597.168 241.588C597.976 242.653 598.565 243.866 598.904 245.158C599.242 246.451 599.323 247.797 599.141 249.121L601.272 275.014C601.92 282.872 599.694 290.699 595.01 297.037L581.31 315.579C581.046 315.935 580.71 316.232 580.325 316.45C579.939 316.668 579.512 316.802 579.071 316.844C578.826 316.867 578.579 316.862 578.335 316.827Z" fill="#6C63FF"/>
<path d="M472.017 194.379C472.205 195.393 472.612 196.354 473.211 197.193C473.809 198.033 474.584 198.73 475.481 199.237C476.378 199.744 477.375 200.048 478.402 200.128C479.429 200.208 480.461 200.061 481.425 199.698L497.433 218.973L501.206 206.507L485.426 190.114C484.71 188.533 483.439 187.27 481.855 186.564C480.27 185.858 478.482 185.758 476.829 186.284C475.177 186.81 473.774 187.924 472.887 189.416C472 190.908 471.691 192.674 472.017 194.379Z" fill="#FFB8B8"/>
<path d="M484.557 202.369C484.888 201.819 485.378 201.382 485.963 201.117L491.417 198.65C492.008 198.384 492.666 198.307 493.303 198.428C493.939 198.549 494.524 198.863 494.976 199.327L510.726 215.553L549.101 230.464C550.249 231.145 551.252 232.047 552.053 233.116C552.853 234.186 553.435 235.403 553.765 236.698C554.095 237.992 554.167 239.34 553.977 240.663C553.786 241.985 553.337 243.257 552.655 244.406C551.974 245.555 551.072 246.558 550.003 247.358C548.933 248.158 547.717 248.739 546.423 249.068C545.129 249.397 543.784 249.468 542.462 249.276C541.141 249.083 539.871 248.632 538.724 247.949L514.076 239.818C506.595 237.351 500.263 232.248 496.259 225.457L484.546 205.599C484.321 205.217 484.178 204.791 484.128 204.351C484.078 203.91 484.121 203.464 484.255 203.041C484.329 202.806 484.43 202.581 484.557 202.369Z" fill="#6C63FF"/>
<path opacity="0.1" d="M585.083 263.507L584.382 285.954L571.474 308.408L582.252 283.385L585.083 263.507Z" fill="black"/>
<path d="M569.152 207.004C568.071 207.145 566.976 206.888 566.07 206.281C565.164 205.675 564.508 204.76 564.225 203.706C563.953 202.493 563.355 201.377 562.497 200.478C561.639 199.58 560.553 198.931 559.355 198.604C556.198 197.881 552.34 199.369 550.026 196.975C549.531 196.428 549.173 195.771 548.981 195.059C548.789 194.346 548.769 193.598 548.923 192.876C549.349 190.549 551.011 188.792 552.821 187.386C556.628 184.441 561.236 182.717 566.04 182.44C568.527 182.368 571.015 182.492 573.482 182.81C576.065 182.974 578.62 183.441 581.094 184.203C583.913 185.268 586.417 187.027 588.377 189.317C590.337 191.607 591.688 194.355 592.307 197.307C592.872 200.267 592.785 203.316 592.052 206.239C591.319 209.163 589.957 211.891 588.062 214.233C585.794 217.061 582.868 219.291 579.541 220.728C578.749 221.102 577.841 221.149 577.015 220.856C574.942 220.031 575.281 217.462 576.226 215.748C577.237 213.914 578.793 212.138 577.98 209.906C577.572 208.87 576.79 208.027 575.788 207.544C573.728 206.493 571.424 206.741 569.21 206.997L569.152 207.004Z" fill="#2F2E41"/>
<path d="M466.266 216.734H253.255C250.19 216.73 247.251 215.51 245.083 213.34C242.916 211.17 241.697 208.228 241.693 205.16V159.564C241.697 156.496 242.916 153.554 245.083 151.384C247.251 149.214 250.19 147.994 253.255 147.99H466.266C469.332 147.994 472.27 149.214 474.438 151.384C476.605 153.554 477.824 156.496 477.828 159.564V205.16C477.824 208.228 476.605 211.17 474.438 213.34C472.27 215.51 469.332 216.73 466.266 216.734Z" fill="white"/>
<path d="M466.266 217.085H253.255C250.097 217.081 247.069 215.824 244.836 213.588C242.603 211.352 241.346 208.321 241.343 205.16V159.565C241.346 156.403 242.603 153.372 244.836 151.136C247.069 148.901 250.097 147.643 253.255 147.64H466.266C469.424 147.643 472.452 148.901 474.685 151.136C476.918 153.372 478.175 156.403 478.178 159.565V205.16C478.175 208.321 476.918 211.352 474.685 213.588C472.452 215.824 469.424 217.081 466.266 217.085ZM253.255 149.043C250.468 149.046 247.797 150.155 245.826 152.128C243.856 154.1 242.747 156.775 242.744 159.565V205.16C242.747 207.949 243.856 210.624 245.826 212.596C247.797 214.569 250.468 215.679 253.255 215.682H466.266C469.053 215.679 471.724 214.569 473.695 212.596C475.665 210.624 476.774 207.949 476.777 205.16V159.565C476.774 156.775 475.665 154.1 473.695 152.128C471.724 150.155 469.053 149.046 466.266 149.043H253.255Z" fill="#3F3D56"/>
<path d="M440.34 205.51H279.18C276.115 205.506 273.176 204.286 271.009 202.116C268.842 199.946 267.622 197.004 267.619 193.936V170.086C267.622 167.017 268.842 164.075 271.009 161.906C273.176 159.736 276.115 158.515 279.18 158.512H440.34C443.406 158.515 446.344 159.736 448.512 161.906C450.679 164.075 451.898 167.017 451.902 170.086V193.936C451.898 197.004 450.679 199.946 448.512 202.116C446.344 204.286 443.406 205.506 440.34 205.51Z" fill="#F2F2F2"/>
<path d="M313.861 192.656C321.497 192.656 327.688 186.459 327.688 178.814C327.688 171.17 321.497 164.973 313.861 164.973C306.225 164.973 300.035 171.17 300.035 178.814C300.035 186.459 306.225 192.656 313.861 192.656Z" fill="#FFD700"/>
<path d="M430.326 204.114L410.809 187.728L391.63 171.625C391.124 171.2 390.484 170.967 389.824 170.969C389.163 170.97 388.524 171.205 388.02 171.632L368.902 187.809L364.233 191.76L357.192 185.849L335.795 167.884C335.289 167.459 334.649 167.226 333.988 167.228C333.328 167.229 332.689 167.464 332.185 167.89L310.857 185.938L289.193 204.27C289.084 204.363 289.005 204.487 288.968 204.626C288.931 204.765 288.938 204.912 288.988 205.047C289.037 205.182 289.127 205.299 289.245 205.381C289.363 205.463 289.503 205.507 289.647 205.507L334.062 205.421L348.121 205.394L347.983 205.511L389.89 205.43L429.877 205.353C430.02 205.352 430.161 205.308 430.278 205.225C430.396 205.143 430.485 205.026 430.534 204.89C430.583 204.755 430.589 204.608 430.552 204.469C430.515 204.33 430.436 204.206 430.326 204.114Z" fill="#39424E"/>
<path d="M613.299 464H478.766C478.58 464 478.402 463.926 478.27 463.794C478.139 463.663 478.065 463.484 478.065 463.298C478.065 463.112 478.139 462.934 478.27 462.802C478.402 462.671 478.58 462.597 478.766 462.597H613.299C613.485 462.597 613.663 462.671 613.795 462.802C613.926 462.934 614 463.112 614 463.298C614 463.484 613.926 463.663 613.795 463.794C613.663 463.926 613.485 464 613.299 464Z" fill="#CCCCCC"/>
<path d="M423.26 92.5323C422.7 91.6218 421.961 90.8351 421.088 90.2201C420.214 89.605 419.225 89.1745 418.18 88.9548C417.797 88.8742 417.408 88.8249 417.017 88.8075L363.63 41.0237C362.582 39.9447 361.183 39.2756 359.686 39.1367C359.39 39.1028 359.093 39.0934 358.796 39.1087C357.564 39.1647 356.375 39.5788 355.375 40.3004C354.374 41.022 353.606 42.0197 353.163 43.1717C352.72 44.3236 352.622 45.5798 352.88 46.7867C353.139 47.9936 353.743 49.0989 354.62 49.9674L375.059 67.8056L408.622 97.0918C408.65 97.6434 408.732 98.1908 408.867 98.7262C409.269 100.277 410.132 101.669 411.342 102.718C412.552 103.766 414.052 104.422 415.643 104.597C417.094 104.767 418.563 104.524 419.882 103.896C420.928 103.406 421.856 102.696 422.601 101.813C422.678 101.721 422.748 101.637 422.818 101.539C423.798 100.261 424.365 98.7139 424.444 97.1047C424.523 95.4954 424.11 93.9003 423.26 92.5323H423.26Z" fill="#FFB8B8"/>
<path d="M331.945 138.583L331.448 118.339L331.027 101.539L330.74 89.782L330.172 66.8651C330.06 65.6381 329.593 64.4704 328.829 63.5045C328.065 62.5386 327.037 61.8163 325.869 61.4258C324.702 61.0353 323.446 60.9934 322.256 61.3054C321.065 61.6173 319.991 62.2695 319.164 63.1824C318.97 63.391 318.794 63.6163 318.639 63.8558C317.776 65.0927 317.388 66.5995 317.546 68.0997L318.793 101.539L319.417 118.339L320.215 139.768C319.985 140.083 319.777 140.414 319.592 140.757C319.094 141.703 318.792 142.741 318.707 143.807C318.621 144.873 318.753 145.945 319.094 146.958C319.45 148.021 320.027 148.996 320.787 149.82C321.547 150.643 322.472 151.296 323.502 151.735C324.532 152.175 325.644 152.391 326.763 152.369C327.883 152.347 328.985 152.088 329.997 151.609C331.173 151.053 332.193 150.215 332.969 149.17C333.744 148.124 334.251 146.904 334.443 145.616C334.636 144.329 334.509 143.014 334.073 141.787C333.637 140.56 332.906 139.46 331.945 138.583H331.945Z" fill="#FFB8B8"/>
<path d="M380.013 81.2386L375.059 67.8056L367.043 46.0461C366.465 44.4629 365.537 43.0304 364.33 41.8549C363.123 40.6795 361.668 39.7911 360.071 39.2559C359.945 39.2139 359.812 39.1718 359.686 39.1367C358.139 38.6667 356.509 38.5374 354.907 38.7578C353.306 38.9782 351.771 39.5429 350.408 40.4133L323.41 57.5571C320.938 59.1236 319.171 61.5909 318.481 64.4378C317.792 67.2847 318.236 70.2883 319.718 72.814C323.094 78.6584 326.773 84.3223 330.74 89.7824C333.886 94.0684 339.744 94.5243 340.76 101.539H360.666L380.819 83.4272L380.013 81.2386Z" fill="#F9FAFE"/>
<path d="M70.8857 245.411C79.8528 245.411 87.122 238.133 87.122 229.156C87.122 220.18 79.8528 212.902 70.8857 212.902C61.9186 212.902 54.6494 220.18 54.6494 229.156C54.6494 238.133 61.9186 245.411 70.8857 245.411Z" fill="#A0616A"/>
<path d="M110.746 217.967C110.906 218.095 111.061 218.23 111.211 218.373C111.957 219.076 112.546 219.929 112.94 220.877C113.333 221.824 113.522 222.844 113.495 223.869C113.467 224.894 113.223 225.902 112.779 226.827C112.336 227.752 111.701 228.572 110.919 229.234C110.736 229.387 110.546 229.531 110.349 229.664L111.447 266.803C111.479 268.019 111.118 269.213 110.418 270.207C109.718 271.201 108.716 271.943 107.562 272.322L107.495 272.336L77.3732 275.547C76.5542 275.635 75.7262 275.559 74.9368 275.324C74.1474 275.089 73.4123 274.699 72.774 274.179C72.1357 273.658 71.6068 273.015 71.2178 272.288C70.8289 271.562 70.5876 270.765 70.5079 269.945C70.4282 269.124 70.5117 268.296 70.7535 267.508C70.9953 266.719 71.3907 265.987 71.9168 265.353C72.443 264.719 73.0894 264.195 73.8188 263.812C74.5482 263.429 75.3461 263.195 76.1665 263.123L97.6388 261.229L101.352 229.067C101.109 228.851 100.882 228.619 100.671 228.372C99.5071 226.993 98.8965 225.229 98.9581 223.424C99.0196 221.619 99.7491 219.902 101.005 218.605C102.26 217.308 103.952 216.525 105.753 216.407C107.553 216.289 109.332 216.845 110.746 217.967H110.746Z" fill="#A0616A"/>
<path d="M97.6265 455.373H105.731L109.587 424.078H97.6251L97.6265 455.373Z" fill="#A0616A"/>
<path d="M95.5596 452.724L111.52 452.724H111.521C112.856 452.724 114.179 452.987 115.413 453.499C116.647 454.01 117.768 454.76 118.713 455.706C119.657 456.651 120.407 457.774 120.918 459.009C121.429 460.245 121.692 461.569 121.692 462.906V463.237L95.56 463.238L95.5596 452.724Z" fill="#2F2E41"/>
<path d="M17.0731 444.155L24.0366 448.305L43.3429 423.391L33.0651 417.266L17.0731 444.155Z" fill="#A0616A"/>
<path d="M16.6506 440.82L30.3644 448.994L30.3649 448.995C31.5126 449.679 32.5145 450.583 33.3133 451.654C34.1121 452.726 34.6922 453.945 35.0205 455.241C35.3488 456.537 35.4189 457.885 35.2267 459.209C35.0345 460.532 34.5839 461.804 33.9005 462.953L33.7314 463.237L11.278 449.854L16.6506 440.82Z" fill="#2F2E41"/>
<path d="M107.644 444.319H98.5684C97.8335 444.32 97.1244 444.049 96.578 443.557C96.0316 443.065 95.6869 442.388 95.6104 441.656L86.4613 355.56C86.4382 355.343 86.3445 355.14 86.1947 354.982C86.0449 354.824 85.8473 354.719 85.6323 354.685C85.4174 354.65 85.197 354.688 85.0053 354.791C84.8136 354.894 84.6611 355.058 84.5714 355.256L68.0662 391.844L38.8447 439.545C38.4665 440.157 37.8809 440.611 37.1952 440.826C36.5095 441.041 35.7695 441.001 35.1108 440.714L23.437 435.572C23.051 435.402 22.7056 435.151 22.4235 434.838C22.1415 434.524 21.9294 434.153 21.8012 433.751C21.673 433.349 21.6317 432.924 21.68 432.504C21.7283 432.085 21.8651 431.681 22.0813 431.318L48.9439 386.29L57.1825 348.351C54.5913 331.898 65.6994 307.437 65.8121 307.192L65.8671 307.072L96.4648 295.1L96.6182 295.288C108.685 334.93 116.038 377.592 110.609 441.591C110.542 442.333 110.201 443.024 109.653 443.528C109.105 444.033 108.388 444.315 107.644 444.319Z" fill="#2F2E41"/>
<path d="M64.6345 311.082L64.492 310.782C64.4239 310.638 57.6203 296.273 52.3756 280.919C51.3676 277.95 50.9866 274.804 51.2566 271.68C51.5266 268.556 52.4417 265.522 53.9441 262.77C55.466 259.99 57.5481 257.556 60.0584 255.624C62.5688 253.691 65.4527 252.302 68.5274 251.543C73.8653 250.263 79.4852 250.944 84.3632 253.464C89.2412 255.984 93.0527 260.174 95.1033 265.271C99.2635 275.686 97.9376 286.802 96.6898 295.544L96.665 295.719L96.5059 295.796L64.6345 311.082Z" fill="#FF8A65"/>
<path d="M90.5717 219.975H64.7904V208.725C70.4491 206.474 75.9864 204.56 79.3337 208.725C82.3142 208.725 85.1726 209.91 87.2801 212.02C89.3877 214.13 90.5717 216.991 90.5717 219.975V219.975Z" fill="#2F2E41"/>
<path d="M63.363 206.739C47.9504 206.739 43.6365 226.079 43.6365 236.99C43.6365 243.075 46.3853 245.251 50.7048 245.988L52.2302 237.843L55.8031 246.338C57.0165 246.344 58.2911 246.321 59.6126 246.296L60.824 243.799L63.5254 246.251C74.3447 246.268 83.0892 247.846 83.0892 236.99C83.0892 226.079 79.3059 206.739 63.363 206.739Z" fill="#2F2E41"/>
<path d="M135.234 464H0.700696C0.51486 464 0.336635 463.926 0.205229 463.794C0.0738226 463.663 0 463.484 0 463.298C0 463.112 0.0738226 462.934 0.205229 462.802C0.336635 462.671 0.51486 462.597 0.700696 462.597H135.234C135.42 462.597 135.598 462.671 135.73 462.802C135.861 462.934 135.935 463.112 135.935 463.298C135.935 463.484 135.861 463.663 135.73 463.794C135.598 463.926 135.42 464 135.234 464Z" fill="#CCCCCC"/>
<path d="M137.764 233.218H107.634C105.869 233.216 104.177 232.514 102.929 231.264C101.681 230.015 100.979 228.321 100.977 226.554V196.391C100.979 194.625 101.681 192.931 102.929 191.682C104.177 190.432 105.869 189.73 107.634 189.728H137.764C139.529 189.73 141.221 190.432 142.469 191.682C143.717 192.931 144.419 194.625 144.421 196.391V226.554C144.419 228.321 143.717 230.015 142.469 231.264C141.221 232.514 139.529 233.216 137.764 233.218Z" fill="white"/>
<path d="M137.764 233.218H107.634C105.869 233.216 104.177 232.514 102.929 231.264C101.681 230.015 100.979 228.321 100.977 226.554V196.391C100.979 194.625 101.681 192.931 102.929 191.682C104.177 190.432 105.869 189.73 107.634 189.728H137.764C139.529 189.73 141.221 190.432 142.469 191.682C143.717 192.931 144.419 194.625 144.421 196.391V226.554C144.419 228.321 143.717 230.015 142.469 231.264C141.221 232.514 139.529 233.216 137.764 233.218ZM107.634 191.13C106.241 191.132 104.905 191.687 103.92 192.673C102.935 193.659 102.38 194.997 102.379 196.391V226.554C102.38 227.949 102.935 229.287 103.92 230.273C104.905 231.259 106.241 231.814 107.634 231.815H137.764C139.157 231.814 140.493 231.259 141.478 230.273C142.463 229.287 143.018 227.949 143.019 226.554V196.391C143.018 194.997 142.463 193.659 141.478 192.673C140.493 191.687 139.157 191.132 137.764 191.13H107.634Z" fill="#3F3D56"/>
<path d="M132.509 220.942H112.889C112.332 220.942 111.798 220.72 111.404 220.325C111.01 219.931 110.788 219.396 110.787 218.838V204.107C110.788 203.549 111.01 203.014 111.404 202.62C111.798 202.225 112.332 202.004 112.889 202.003H118.412C118.772 202.002 119.125 202.093 119.439 202.268C119.752 202.444 120.016 202.697 120.203 203.004L121.743 205.51H132.509C133.066 205.511 133.6 205.733 133.995 206.127C134.389 206.522 134.61 207.057 134.611 207.615V218.838C134.61 219.396 134.389 219.931 133.995 220.325C133.6 220.72 133.066 220.942 132.509 220.942Z" fill="#6C63FF"/>
<path d="M131.871 228.384C131.969 228.564 132.059 228.749 132.142 228.939C132.557 229.877 132.769 230.892 132.765 231.918C132.76 232.944 132.539 233.957 132.116 234.891C131.694 235.826 131.078 236.66 130.311 237.34C129.543 238.02 128.641 238.529 127.663 238.836C127.435 238.906 127.204 238.964 126.971 239.011L113.588 273.666C113.145 274.799 112.35 275.759 111.319 276.403C110.289 277.047 109.079 277.342 107.868 277.243L107.801 277.23L78.794 268.489C78.0054 268.251 77.2716 267.859 76.6351 267.336C75.9985 266.813 75.4718 266.168 75.0854 265.44C74.699 264.712 74.4604 263.915 74.3836 263.094C74.3068 262.273 74.3932 261.445 74.6379 260.657C74.8825 259.87 75.2805 259.139 75.8089 258.507C76.3373 257.874 76.9857 257.353 77.7165 256.973C78.4473 256.593 79.2461 256.361 80.0668 256.292C80.8875 256.222 81.7138 256.316 82.498 256.568L103.022 263.165L118.911 234.965C118.77 234.672 118.651 234.37 118.553 234.06C118.014 232.337 118.135 230.474 118.892 228.835C119.648 227.195 120.986 225.896 122.646 225.188C124.306 224.481 126.169 224.416 127.873 225.007C129.578 225.598 131.003 226.801 131.871 228.384H131.871Z" fill="#A0616A"/>
</g>
<defs>
<clipPath id="clip0_781_670">
<rect width="614" height="464" fill="white"/>
</clipPath>
</defs>
</svg>
