<svg width="200" height="200" viewBox="0 0 200 200" fill="none" xmlns="http://www.w3.org/2000/svg">
<path d="M75 175C75 179.584 78.75 183.334 83.3333 183.334H116.667C121.25 183.334 125 179.584 125 175V166.667H75V175ZM100 16.667C67.8333 16.667 41.6667 42.8337 41.6667 75.0003C41.6667 94.8337 51.5833 112.25 66.6667 122.834V141.667C66.6667 146.25 70.4167 150 75 150H125C129.583 150 133.333 146.25 133.333 141.667V122.834C148.417 112.25 158.333 94.8337 158.333 75.0003C158.333 42.8337 132.167 16.667 100 16.667ZM123.75 109.167L116.667 114.167V133.334H83.3333V114.167L76.25 109.167C70.7291 105.34 66.2161 100.233 63.0963 94.2837C59.9764 88.3342 58.3423 81.7182 58.3333 75.0003C58.3333 52.0003 77 33.3337 100 33.3337C123 33.3337 141.667 52.0003 141.667 75.0003C141.667 88.5837 135 101.334 123.75 109.167Z" fill="#39424E"/>
</svg>
