<svg width="599" height="593" viewBox="0 0 599 593" fill="none" xmlns="http://www.w3.org/2000/svg">
<g clip-path="url(#clip0_139_1572)">
<path d="M598.688 308.533C598.774 381.892 571.113 452.43 521.517 505.317C518.527 508.526 515.457 511.658 512.305 514.712C507.504 519.394 502.542 523.894 497.418 528.213C449.486 568.693 389.648 591.441 327.557 592.786C325.488 592.834 323.412 592.858 321.327 592.858C271.808 592.858 209.526 565.745 153.004 528.213C148.328 525.107 143.693 521.93 139.1 518.681C136.953 517.177 134.817 515.651 132.691 514.104C110.891 498.325 90.1993 480.997 70.7673 462.247C58.0444 450.007 46.1137 436.93 35.0511 423.098C-8.37827 368.184 -17.9572 318.704 43.9586 308.533C51.2892 307.332 58.4039 306.049 65.3025 304.683C75.2952 302.715 84.8586 300.589 93.9925 298.305C106.296 295.24 117.855 291.917 128.67 288.334C132.308 287.134 135.863 285.909 139.335 284.661C190.657 266.183 225.007 242.087 248.388 215.942C252.354 211.517 256.01 207.038 259.357 202.506C264.477 195.607 269.128 188.356 273.276 180.803C279.002 170.308 283.812 159.315 287.648 147.952L287.859 147.328C306.463 92.3179 300.803 41.2932 321.327 24.2156C409.06 -48.7923 518.285 55.1777 569.553 177.786C572.137 183.964 574.567 190.179 576.844 196.432C577.867 199.225 578.853 202.023 579.803 204.827C582.301 212.133 584.568 219.458 586.603 226.802C587.384 229.603 588.128 232.401 588.836 235.197C589.593 238.214 590.319 241.223 590.99 244.232C595.979 266.263 598.688 287.99 598.688 308.533Z" fill="#2B2B2B"/>
<path d="M327.557 592.786C325.488 592.834 323.412 592.858 321.327 592.858C271.809 592.858 209.526 565.745 153.005 528.213C148.328 525.108 143.694 521.931 139.101 518.682L143.129 493.554L265.079 476.956L326.285 524.932L327.557 592.786Z" fill="#2F2E41"/>
<path d="M333.428 144.087H316.05C315.512 144.087 314.996 144.306 314.615 144.697C314.235 145.087 314.021 145.616 314.021 146.167V163.989C314.021 164.262 314.073 164.532 314.176 164.784C314.278 165.036 314.428 165.265 314.616 165.457C314.805 165.65 315.028 165.802 315.274 165.906C315.52 166.01 315.784 166.063 316.05 166.062H333.428C333.965 166.062 334.48 165.844 334.861 165.456C335.241 165.067 335.456 164.54 335.458 163.989V146.167C335.456 145.616 335.242 145.088 334.862 144.698C334.481 144.308 333.966 144.088 333.428 144.087Z" fill="white"/>
<path d="M333.428 174.457H316.05C315.512 174.457 314.996 174.677 314.615 175.067C314.235 175.457 314.021 175.986 314.021 176.538V194.36C314.021 194.632 314.073 194.902 314.176 195.154C314.278 195.406 314.428 195.635 314.616 195.827C314.805 196.02 315.028 196.172 315.274 196.276C315.52 196.38 315.784 196.433 316.05 196.432H333.428C333.965 196.432 334.48 196.214 334.861 195.826C335.241 195.437 335.456 194.91 335.458 194.36V176.538C335.456 175.986 335.242 175.458 334.862 175.068C334.481 174.678 333.966 174.459 333.428 174.457Z" fill="#E6E6E6"/>
<path d="M333.428 204.826H316.05C315.512 204.826 314.996 205.046 314.615 205.436C314.235 205.826 314.021 206.355 314.021 206.907V224.721C314.02 224.994 314.072 225.265 314.174 225.518C314.276 225.77 314.425 226 314.614 226.193C314.802 226.386 315.026 226.54 315.273 226.644C315.519 226.748 315.783 226.802 316.05 226.801H333.428C333.966 226.801 334.482 226.582 334.863 226.192C335.244 225.802 335.458 225.272 335.458 224.721V206.907C335.456 206.356 335.242 205.827 334.862 205.437C334.481 205.048 333.966 204.828 333.428 204.826Z" fill="#E6E6E6"/>
<path d="M335.427 236.909C335.34 236.43 335.093 235.996 334.728 235.684C334.363 235.371 333.904 235.199 333.428 235.196H316.05C315.512 235.197 314.996 235.416 314.615 235.806C314.235 236.196 314.021 236.725 314.021 237.277V255.091C314.02 255.364 314.072 255.635 314.174 255.888C314.276 256.14 314.425 256.37 314.614 256.563C314.802 256.757 315.026 256.91 315.273 257.014C315.519 257.119 315.783 257.172 316.05 257.172H333.428C333.966 257.171 334.482 256.952 334.863 256.562C335.244 256.172 335.458 255.643 335.458 255.091V237.277C335.459 237.154 335.449 237.03 335.427 236.909Z" fill="#E6E6E6"/>
<path d="M334.217 265.727C333.967 265.62 333.699 265.566 333.428 265.566H316.05C315.783 265.566 315.519 265.619 315.273 265.724C315.026 265.828 314.802 265.981 314.614 266.175C314.425 266.368 314.276 266.598 314.174 266.85C314.072 267.103 314.02 267.374 314.021 267.647V285.461C314.019 285.734 314.071 286.006 314.173 286.259C314.274 286.512 314.424 286.741 314.612 286.935C314.801 287.128 315.025 287.282 315.272 287.386C315.519 287.49 315.783 287.543 316.05 287.542H333.428C333.966 287.541 334.483 287.322 334.863 286.932C335.244 286.542 335.458 286.013 335.458 285.461V267.647C335.457 267.238 335.339 266.837 335.118 266.496C334.898 266.155 334.584 265.887 334.217 265.727Z" fill="#E6E6E6"/>
<path d="M369.933 144.087H352.555C352.017 144.087 351.501 144.306 351.12 144.697C350.74 145.087 350.526 145.616 350.525 146.167V163.989C350.526 164.262 350.578 164.532 350.681 164.784C350.783 165.036 350.932 165.265 351.121 165.457C351.309 165.65 351.533 165.802 351.779 165.906C352.025 166.01 352.289 166.063 352.555 166.062H369.933C370.47 166.062 370.985 165.844 371.366 165.456C371.746 165.067 371.961 164.54 371.963 163.989V146.167C371.961 145.616 371.747 145.088 371.367 144.698C370.986 144.308 370.471 144.088 369.933 144.087Z" fill="#E6E6E6"/>
<path d="M369.933 174.457H352.555C352.017 174.457 351.501 174.677 351.12 175.067C350.74 175.457 350.526 175.986 350.525 176.538V194.36C350.526 194.632 350.578 194.902 350.681 195.154C350.783 195.406 350.932 195.635 351.121 195.827C351.309 196.02 351.533 196.172 351.779 196.276C352.025 196.38 352.289 196.433 352.555 196.432H369.933C370.47 196.432 370.985 196.214 371.366 195.826C371.746 195.437 371.961 194.91 371.963 194.36V176.538C371.961 175.986 371.747 175.458 371.367 175.068C370.986 174.678 370.471 174.459 369.933 174.457Z" fill="#6C63FF"/>
<path d="M369.933 204.826H352.555C352.017 204.826 351.501 205.046 351.12 205.436C350.74 205.826 350.526 206.355 350.525 206.907V224.721C350.525 224.994 350.577 225.265 350.679 225.518C350.781 225.77 350.93 226 351.119 226.193C351.307 226.386 351.531 226.54 351.778 226.644C352.024 226.748 352.288 226.802 352.555 226.801H369.933C370.471 226.801 370.987 226.582 371.368 226.192C371.749 225.802 371.963 225.272 371.963 224.721V206.907C371.961 206.356 371.747 205.827 371.367 205.437C370.986 205.048 370.471 204.828 369.933 204.826Z" fill="#6C63FF"/>
<path d="M369.933 235.196H352.555C352.129 235.197 351.715 235.334 351.37 235.59C351.025 235.846 350.768 236.207 350.635 236.621C350.562 236.832 350.525 237.054 350.525 237.277V255.091C350.525 255.364 350.577 255.635 350.679 255.888C350.781 256.14 350.93 256.37 351.119 256.563C351.307 256.757 351.531 256.91 351.778 257.014C352.024 257.119 352.288 257.172 352.555 257.172H369.933C370.471 257.171 370.987 256.952 371.368 256.562C371.749 256.172 371.963 255.643 371.963 255.091V237.277C371.961 236.726 371.747 236.197 371.367 235.808C370.986 235.418 370.471 235.198 369.933 235.196Z" fill="#6C63FF"/>
<path d="M369.933 265.566H352.555C352.288 265.566 352.024 265.619 351.778 265.724C351.531 265.828 351.307 265.981 351.119 266.175C350.93 266.368 350.781 266.598 350.679 266.85C350.577 267.103 350.525 267.374 350.525 267.647V285.461C350.525 285.734 350.577 286.005 350.679 286.258C350.781 286.511 350.93 286.74 351.119 286.933C351.307 287.127 351.531 287.28 351.778 287.384C352.024 287.489 352.288 287.542 352.555 287.542H369.933C370.471 287.541 370.987 287.322 371.368 286.932C371.749 286.542 371.963 286.013 371.963 285.461V267.647C371.963 267.095 371.749 266.566 371.368 266.176C370.987 265.786 370.471 265.567 369.933 265.566Z" fill="#E6E6E6"/>
<path d="M406.437 144.087H389.059C388.521 144.087 388.005 144.306 387.624 144.697C387.243 145.087 387.03 145.616 387.029 146.167V163.989C387.03 164.262 387.082 164.532 387.184 164.784C387.287 165.036 387.436 165.265 387.625 165.457C387.813 165.65 388.037 165.802 388.283 165.906C388.529 166.01 388.793 166.063 389.059 166.062H406.437C406.974 166.062 407.489 165.844 407.869 165.456C408.25 165.067 408.465 164.54 408.466 163.989V146.167C408.465 145.616 408.25 145.088 407.87 144.698C407.49 144.308 406.974 144.088 406.437 144.087Z" fill="#6C63FF"/>
<path d="M406.437 174.457H389.059C388.521 174.457 388.005 174.677 387.624 175.067C387.243 175.457 387.03 175.986 387.029 176.538V194.36C387.03 194.632 387.082 194.902 387.184 195.154C387.287 195.406 387.436 195.635 387.625 195.827C387.813 196.02 388.037 196.172 388.283 196.276C388.529 196.38 388.793 196.433 389.059 196.432H406.437C406.974 196.432 407.489 196.214 407.869 195.826C408.25 195.437 408.465 194.91 408.466 194.36V176.538C408.465 175.986 408.251 175.458 407.87 175.068C407.49 174.678 406.974 174.459 406.437 174.457Z" fill="#6C63FF"/>
<path d="M406.437 204.826H389.059C388.521 204.826 388.005 205.046 387.624 205.436C387.243 205.826 387.03 206.355 387.029 206.907V224.721C387.029 224.994 387.081 225.265 387.183 225.518C387.285 225.77 387.434 226 387.623 226.193C387.811 226.386 388.035 226.54 388.282 226.644C388.528 226.748 388.792 226.802 389.059 226.801H406.437C406.975 226.801 407.491 226.582 407.872 226.192C408.252 225.802 408.466 225.272 408.466 224.721V206.907C408.465 206.356 408.251 205.827 407.87 205.437C407.49 205.048 406.975 204.828 406.437 204.826Z" fill="#E6E6E6"/>
<path d="M406.437 235.196H389.059C388.521 235.197 388.005 235.416 387.624 235.806C387.243 236.196 387.03 236.725 387.029 237.277V255.091C387.029 255.364 387.081 255.635 387.183 255.888C387.284 256.14 387.434 256.37 387.623 256.563C387.811 256.757 388.035 256.91 388.282 257.014C388.528 257.119 388.792 257.172 389.059 257.172H406.437C406.975 257.171 407.491 256.952 407.872 256.562C408.252 256.172 408.466 255.643 408.466 255.091V237.277C408.465 236.726 408.251 236.197 407.87 235.808C407.49 235.418 406.974 235.198 406.437 235.196Z" fill="#6C63FF"/>
<path d="M406.437 265.566H389.059C388.792 265.566 388.528 265.619 388.282 265.724C388.035 265.828 387.811 265.981 387.623 266.175C387.434 266.368 387.285 266.598 387.183 266.85C387.081 267.103 387.029 267.374 387.029 267.647V285.461C387.029 285.734 387.081 286.005 387.183 286.258C387.284 286.511 387.434 286.74 387.623 286.933C387.811 287.127 388.035 287.28 388.282 287.384C388.528 287.489 388.792 287.542 389.059 287.542H406.437C406.975 287.541 407.491 287.322 407.872 286.932C408.252 286.542 408.466 286.013 408.466 285.461V267.647C408.466 267.095 408.252 266.566 407.872 266.176C407.491 265.786 406.975 265.567 406.437 265.566Z" fill="#6C63FF"/>
<path d="M442.942 144.087H425.564C425.026 144.087 424.51 144.306 424.129 144.697C423.748 145.087 423.534 145.616 423.534 146.167V163.989C423.534 164.262 423.587 164.532 423.689 164.784C423.792 165.036 423.941 165.265 424.13 165.457C424.318 165.65 424.542 165.802 424.788 165.906C425.034 166.01 425.298 166.063 425.564 166.062H442.942C443.479 166.062 443.994 165.844 444.374 165.456C444.755 165.067 444.97 164.54 444.971 163.989V146.167C444.97 145.616 444.755 145.088 444.375 144.698C443.995 144.308 443.479 144.088 442.942 144.087Z" fill="#6C63FF"/>
<path d="M442.942 174.457H425.564C425.026 174.457 424.51 174.677 424.129 175.067C423.748 175.457 423.534 175.986 423.534 176.538V194.36C423.534 194.632 423.587 194.902 423.689 195.154C423.792 195.406 423.941 195.635 424.13 195.827C424.318 196.02 424.542 196.172 424.788 196.276C425.034 196.38 425.298 196.433 425.564 196.432H442.942C443.479 196.432 443.994 196.214 444.374 195.826C444.755 195.437 444.97 194.91 444.971 194.36V176.538C444.97 175.986 444.756 175.458 444.375 175.068C443.995 174.678 443.479 174.459 442.942 174.457Z" fill="white"/>
<path d="M442.942 204.826H425.564C425.026 204.826 424.51 205.046 424.129 205.436C423.748 205.826 423.534 206.355 423.534 206.907V224.721C423.534 224.994 423.586 225.265 423.688 225.518C423.789 225.77 423.939 226 424.128 226.193C424.316 226.386 424.54 226.54 424.787 226.644C425.033 226.748 425.297 226.802 425.564 226.801H442.942C443.48 226.801 443.996 226.582 444.377 226.192C444.757 225.802 444.971 225.272 444.971 224.721V206.907C444.97 206.356 444.756 205.827 444.375 205.437C443.995 205.048 443.48 204.828 442.942 204.826Z" fill="white"/>
<path d="M442.942 235.196H425.564C425.026 235.197 424.51 235.416 424.129 235.806C423.748 236.196 423.534 236.725 423.534 237.277V255.091C423.534 255.364 423.586 255.635 423.688 255.888C423.789 256.14 423.939 256.37 424.128 256.563C424.316 256.757 424.54 256.91 424.787 257.014C425.033 257.119 425.297 257.172 425.564 257.172H442.942C443.48 257.171 443.996 256.952 444.377 256.562C444.757 256.172 444.971 255.643 444.971 255.091V237.277C444.97 236.726 444.756 236.197 444.375 235.808C443.995 235.418 443.479 235.198 442.942 235.196Z" fill="#E6E6E6"/>
<path d="M442.942 265.566H425.564C425.297 265.566 425.033 265.619 424.787 265.724C424.54 265.828 424.316 265.981 424.128 266.175C423.939 266.368 423.789 266.598 423.688 266.85C423.586 267.103 423.534 267.374 423.534 267.647V285.461C423.534 285.734 423.586 286.005 423.688 286.258C423.789 286.511 423.939 286.74 424.128 286.933C424.316 287.127 424.54 287.28 424.787 287.384C425.033 287.489 425.297 287.542 425.564 287.542H442.942C443.48 287.541 443.996 287.322 444.377 286.932C444.757 286.542 444.971 286.013 444.971 285.461V267.647C444.971 267.095 444.757 266.566 444.377 266.176C443.996 265.786 443.48 265.567 442.942 265.566Z" fill="#6C63FF"/>
<path d="M479.447 144.087H462.061C461.524 144.089 461.01 144.309 460.631 144.699C460.252 145.089 460.039 145.617 460.039 146.167V163.989C460.039 164.539 460.252 165.066 460.631 165.455C461.011 165.844 461.525 166.062 462.061 166.062H479.447C479.984 166.062 480.499 165.844 480.88 165.456C481.26 165.067 481.475 164.54 481.477 163.989V146.167C481.475 145.616 481.261 145.088 480.88 144.698C480.5 144.308 479.985 144.088 479.447 144.087Z" fill="white"/>
<path d="M479.447 174.457H462.061C461.524 174.459 461.01 174.679 460.631 175.069C460.252 175.459 460.039 175.987 460.039 176.538V194.36C460.039 194.909 460.252 195.436 460.631 195.825C461.011 196.214 461.525 196.432 462.061 196.432H479.447C479.984 196.432 480.499 196.214 480.88 195.826C481.26 195.437 481.475 194.91 481.477 194.36V176.538C481.475 175.986 481.261 175.458 480.88 175.068C480.5 174.678 479.985 174.459 479.447 174.457Z" fill="white"/>
<path d="M479.447 204.826H462.061C461.524 204.828 461.01 205.048 460.631 205.438C460.252 205.828 460.039 206.356 460.039 206.907V224.721C460.038 224.994 460.09 225.264 460.191 225.516C460.293 225.768 460.441 225.998 460.629 226.191C460.817 226.384 461.04 226.537 461.286 226.642C461.532 226.747 461.795 226.801 462.061 226.801H479.447C479.985 226.801 480.501 226.582 480.882 226.192C481.262 225.802 481.476 225.273 481.477 224.721V206.907C481.475 206.356 481.261 205.827 480.88 205.437C480.5 205.048 479.985 204.828 479.447 204.826Z" fill="white"/>
<path d="M479.447 235.196H462.061C461.524 235.198 461.01 235.418 460.631 235.808C460.252 236.198 460.039 236.727 460.039 237.277V255.091C460.038 255.364 460.09 255.634 460.191 255.886C460.293 256.138 460.441 256.368 460.629 256.561C460.817 256.754 461.04 256.908 461.286 257.012C461.532 257.117 461.795 257.171 462.061 257.172H479.447C479.985 257.171 480.501 256.952 480.882 256.562C481.262 256.172 481.476 255.643 481.477 255.091V237.277C481.475 236.726 481.261 236.197 480.88 235.808C480.5 235.418 479.985 235.198 479.447 235.196Z" fill="#6C63FF"/>
<path d="M479.447 265.566H462.061C461.795 265.567 461.532 265.621 461.286 265.726C461.04 265.83 460.817 265.984 460.629 266.177C460.441 266.37 460.293 266.6 460.191 266.852C460.09 267.104 460.038 267.374 460.039 267.647V285.461C460.038 285.734 460.09 286.004 460.191 286.256C460.293 286.509 460.441 286.738 460.629 286.931C460.817 287.124 461.04 287.278 461.286 287.383C461.532 287.487 461.795 287.541 462.061 287.542H479.447C479.985 287.541 480.501 287.322 480.882 286.932C481.262 286.542 481.476 286.013 481.477 285.461V267.647C481.476 267.095 481.262 266.566 480.882 266.176C480.501 265.786 479.985 265.567 479.447 265.566Z" fill="#E6E6E6"/>
<path d="M515.951 144.087H498.566C498.029 144.089 497.515 144.309 497.135 144.699C496.756 145.089 496.544 145.617 496.544 146.167V163.989C496.544 164.539 496.757 165.066 497.136 165.455C497.515 165.844 498.03 166.062 498.566 166.062H515.951C516.488 166.062 517.004 165.844 517.384 165.456C517.765 165.067 517.979 164.54 517.981 163.989V146.167C517.98 145.616 517.765 145.088 517.385 144.698C517.005 144.308 516.489 144.089 515.951 144.087Z" fill="white"/>
<path d="M515.951 174.457H498.566C498.029 174.459 497.514 174.679 497.135 175.069C496.756 175.459 496.544 175.987 496.544 176.538V194.36C496.544 194.909 496.757 195.436 497.136 195.825C497.515 196.214 498.03 196.432 498.566 196.432H515.951C516.488 196.432 517.004 196.214 517.384 195.826C517.765 195.437 517.979 194.91 517.981 194.36V176.538C517.98 175.986 517.765 175.458 517.385 175.068C517.005 174.678 516.489 174.459 515.951 174.457Z" fill="white"/>
<path d="M515.951 204.826H498.566C498.029 204.828 497.514 205.048 497.135 205.438C496.756 205.828 496.544 206.356 496.544 206.907V224.721C496.543 224.994 496.595 225.264 496.696 225.516C496.797 225.768 496.946 225.998 497.134 226.191C497.322 226.384 497.545 226.537 497.791 226.642C498.036 226.747 498.3 226.801 498.566 226.801H515.951C516.49 226.801 517.006 226.582 517.386 226.192C517.767 225.802 517.981 225.272 517.981 224.721V206.907C517.98 206.356 517.765 205.827 517.385 205.437C517.005 205.048 516.489 204.828 515.951 204.826Z" fill="#6C63FF"/>
<path d="M515.951 235.196H498.566C498.029 235.198 497.515 235.418 497.136 235.808C496.757 236.198 496.544 236.727 496.544 237.277V255.091C496.543 255.364 496.595 255.634 496.696 255.886C496.797 256.138 496.946 256.368 497.134 256.561C497.322 256.754 497.545 256.908 497.791 257.012C498.036 257.117 498.3 257.171 498.566 257.172H515.951C516.49 257.171 517.006 256.952 517.386 256.562C517.767 256.172 517.981 255.643 517.981 255.091V237.277C517.98 236.726 517.765 236.197 517.385 235.808C517.005 235.418 516.489 235.198 515.951 235.196Z" fill="#E6E6E6"/>
<path d="M515.951 265.566H498.566C498.3 265.567 498.036 265.621 497.791 265.726C497.545 265.83 497.322 265.984 497.134 266.177C496.946 266.37 496.797 266.6 496.696 266.852C496.595 267.104 496.543 267.374 496.544 267.647V285.461C496.543 285.734 496.595 286.004 496.696 286.256C496.797 286.509 496.946 286.738 497.134 286.931C497.322 287.124 497.545 287.278 497.791 287.383C498.036 287.487 498.3 287.541 498.566 287.542H515.951C516.49 287.541 517.006 287.322 517.386 286.932C517.767 286.542 517.981 286.013 517.981 285.461V267.647C517.981 267.095 517.767 266.566 517.386 266.176C517.006 265.786 516.49 265.567 515.951 265.566Z" fill="white"/>
<path d="M552.456 144.087H535.07C534.533 144.089 534.018 144.309 533.639 144.699C533.26 145.089 533.048 145.617 533.048 146.167V163.989C533.048 164.539 533.261 165.066 533.64 165.455C534.019 165.844 534.534 166.062 535.07 166.062H552.456C552.993 166.062 553.508 165.844 553.889 165.456C554.269 165.067 554.484 164.54 554.486 163.989V146.167C554.484 145.616 554.27 145.088 553.889 144.698C553.509 144.308 552.994 144.089 552.456 144.087Z" fill="#6C63FF"/>
<path d="M552.456 174.457H535.07C534.533 174.459 534.018 174.679 533.639 175.069C533.26 175.459 533.048 175.987 533.048 176.538V194.36C533.048 194.909 533.261 195.436 533.64 195.825C534.019 196.214 534.534 196.432 535.07 196.432H552.456C552.993 196.432 553.508 196.214 553.889 195.826C554.269 195.437 554.484 194.91 554.486 194.36V176.538C554.484 175.986 554.27 175.458 553.889 175.068C553.509 174.678 552.994 174.459 552.456 174.457Z" fill="#6C63FF"/>
<path d="M552.456 204.826H535.07C534.533 204.828 534.018 205.048 533.639 205.438C533.26 205.828 533.048 206.356 533.048 206.907V224.721C533.047 224.994 533.099 225.264 533.2 225.516C533.301 225.768 533.45 225.998 533.638 226.191C533.826 226.384 534.049 226.537 534.295 226.642C534.54 226.747 534.804 226.801 535.07 226.801H552.456C552.994 226.801 553.51 226.582 553.891 226.192C554.271 225.802 554.485 225.272 554.486 224.721V206.907C554.484 206.356 554.27 205.827 553.889 205.437C553.509 205.048 552.994 204.828 552.456 204.826Z" fill="#E6E6E6"/>
<path d="M552.456 235.196H535.07C534.533 235.198 534.018 235.418 533.639 235.808C533.26 236.198 533.048 236.727 533.048 237.277V255.091C533.047 255.364 533.099 255.634 533.2 255.886C533.301 256.138 533.45 256.368 533.638 256.561C533.826 256.754 534.049 256.908 534.295 257.012C534.54 257.117 534.804 257.171 535.07 257.172H552.456C552.994 257.171 553.51 256.952 553.891 256.562C554.272 256.172 554.485 255.643 554.486 255.091V237.277C554.484 236.726 554.27 236.197 553.889 235.808C553.509 235.418 552.994 235.198 552.456 235.196Z" fill="white"/>
<path d="M552.456 265.566H535.07C534.804 265.567 534.54 265.621 534.295 265.726C534.049 265.83 533.826 265.984 533.638 266.177C533.45 266.37 533.301 266.6 533.2 266.852C533.099 267.104 533.047 267.374 533.048 267.647V285.461C533.047 285.734 533.099 286.004 533.2 286.256C533.301 286.509 533.45 286.738 533.638 286.931C533.826 287.124 534.049 287.278 534.295 287.383C534.54 287.487 534.804 287.541 535.07 287.542H552.456C552.994 287.541 553.51 287.322 553.891 286.932C554.272 286.542 554.485 286.013 554.486 285.461V267.647C554.485 267.095 554.272 266.566 553.891 266.176C553.51 265.786 552.994 265.567 552.456 265.566Z" fill="#6C63FF"/>
<path d="M262.381 528.213H261.899L262.311 528.157L262.381 528.213Z" fill="#2F2E41"/>
<path d="M220.788 196.108C250.245 196.108 274.126 171.629 274.126 141.432C274.126 111.236 250.245 86.7568 220.788 86.7568C191.33 86.7568 167.45 111.236 167.45 141.432C167.45 171.629 191.33 196.108 220.788 196.108Z" fill="#FFB6B6"/>
<path d="M267.497 101.346C267.497 101.346 281.447 74.0082 250.756 71.5229C250.756 71.5229 224.592 47.1931 197.923 67.0751C197.923 67.0751 183.377 67.0751 175.422 83.9491C175.422 83.9491 163.981 79.5013 161.467 91.4049C161.467 91.4049 153.095 116.257 161.467 138.625C169.838 160.992 172.619 163.477 172.619 163.477C172.619 163.477 158.863 116.583 192.347 114.098C225.831 111.612 263.3 90.1623 266.091 117.5C268.881 144.838 273.081 151.573 273.081 151.573C273.081 151.573 299.584 112.53 267.497 101.346Z" fill="#2F2E41"/>
<path d="M358.761 276.178L358.59 277.107L356.661 287.542L343.335 359.726L342.547 363.975L340.892 372.962L338.628 385.222L333.608 412.391L332.171 420.177L331.633 423.098L331.445 424.123L329.954 432.181L329.501 434.614L325.863 462.247L322.686 486.327L333.319 497.226L326.98 503.725L322.819 528.157L322.827 528.213H153.005C146.135 523.651 139.364 518.948 132.691 514.104L134.089 503.381C134.089 503.381 138.898 484.23 136.876 481.942C134.862 479.653 130.443 475.563 130.443 475.563L136.009 462.247L136.782 460.399L135.486 432.845L135.455 432.181L135.026 423.098L134.971 421.93L134.885 420.177L133.238 385.222L133.207 384.646L132.707 374.05L132.239 363.975L132.036 359.726L130.029 317.208L128.671 288.334L127.484 263.198L132.254 261.542L183.272 243.768L204.405 215.606L248.389 215.943L269.92 216.111L305.847 250.266L314.021 254.267L314.083 254.299L319.946 257.172L334.81 264.446L350.525 272.145L358.59 276.09L358.761 276.178Z" fill="#CACACA"/>
<path d="M210.089 446.187C206.866 447.467 203.408 448.007 199.959 447.769C196.51 447.531 193.154 446.521 190.128 444.809C187.101 443.098 184.477 440.727 182.441 437.864C180.405 435.001 179.006 431.715 178.343 428.237L95.1543 416.139L124.073 382.606L198.637 399.236C204.41 398.481 210.252 399.923 215.057 403.289C219.862 406.655 223.295 411.71 224.707 417.498C226.119 423.285 225.41 429.402 222.716 434.69C220.022 439.977 215.529 444.068 210.089 446.187V446.187Z" fill="#FFB6B6"/>
<path d="M172.998 385.222C171.457 383.219 169.276 381.839 166.839 381.324L132.707 374.05L129.202 373.306C127.165 372.87 125.24 371.998 123.555 370.747C121.869 369.496 120.46 367.895 119.42 366.047C118.341 364.108 117.688 361.95 117.507 359.725C117.345 357.702 117.581 355.667 118.202 353.739L130.029 317.207L137.703 293.503C138.633 290.645 139.182 287.67 139.335 284.661C139.763 276.332 137.249 268.124 132.254 261.541C127.863 255.754 121.773 251.569 114.883 249.604C107.993 247.638 100.669 247.996 93.993 250.625C93.7979 250.697 93.5949 250.777 93.3997 250.857C88.612 252.817 84.3345 255.891 80.9052 259.837C77.476 263.783 74.9889 268.492 73.6406 273.593L65.303 304.683L48.1045 368.776C46.3829 375.198 46.0351 381.925 47.0849 388.497C48.1347 395.069 50.5574 401.331 54.187 406.854C57.8167 412.378 62.5678 417.032 68.1149 420.498C73.6621 423.965 79.8744 426.162 86.3267 426.939L135.486 432.845L158.235 435.582C160.866 435.906 163.519 435.202 165.666 433.611C167.813 432.02 169.297 429.658 169.821 426.995C169.858 426.85 169.886 426.703 169.907 426.555L170.453 423.098L175.083 393.984L175.129 393.688C175.371 392.203 175.306 390.682 174.938 389.224C174.571 387.765 173.91 386.402 172.998 385.222Z" fill="#CACACA"/>
<path d="M263.077 447.12C266.444 447.921 269.941 447.956 273.323 447.221C276.704 446.487 279.888 445.002 282.649 442.87C285.409 440.738 287.681 438.012 289.303 434.883C290.925 431.754 291.858 428.299 292.036 424.76L372.729 400.757L339.486 371.74L267.955 398.982C262.136 399.069 256.55 401.342 252.257 405.368C247.963 409.395 245.259 414.896 244.658 420.83C244.056 426.763 245.599 432.717 248.994 437.562C252.389 442.408 257.399 445.808 263.077 447.12V447.12Z" fill="#FFB6B6"/>
<path d="M412.793 347.065L374.414 256.524C371.275 249.09 365.669 243.037 358.59 239.438C356.402 238.334 354.103 237.475 351.735 236.877C351.368 236.781 351.001 236.693 350.634 236.621C345.613 235.498 340.404 235.596 335.427 236.909C330.877 238.107 326.624 240.275 322.946 243.272C319.269 246.268 316.249 250.025 314.083 254.299C314.059 254.334 314.038 254.372 314.02 254.411C311.601 259.208 310.315 264.52 310.265 269.921C310.214 275.321 311.402 280.657 313.731 285.501L314.208 286.477L341.329 342.311C342.255 344.221 342.777 346.309 342.86 348.44C342.943 350.57 342.586 352.695 341.812 354.674C341.038 356.653 339.864 358.442 338.368 359.924C336.872 361.405 335.088 362.546 333.132 363.27L331.227 363.975L296.97 376.659C294.4 377.599 292.285 379.525 291.072 382.031C289.859 384.537 289.642 387.428 290.467 390.095L290.553 390.375L300.155 421.873C300.202 422.018 300.249 422.162 300.304 422.306C300.388 422.577 300.492 422.842 300.616 423.098C301.637 425.444 303.44 427.34 305.703 428.445C307.965 429.549 310.538 429.79 312.959 429.124L331.445 424.122L335.216 423.098L382.955 410.174C389.236 408.472 395.085 405.399 400.1 401.166C405.115 396.932 409.179 391.637 412.013 385.644C414.846 379.651 416.383 373.1 416.518 366.442C416.652 359.783 415.381 353.173 412.792 347.065L412.793 347.065Z" fill="#CACACA"/>
<path d="M35.0508 423.098C46.1134 436.929 58.0441 450.007 70.767 462.246H423.612C427.012 462.252 430.27 463.639 432.673 466.104C435.076 468.569 436.428 471.91 436.431 475.395L436.938 567.048C458.645 556.826 478.973 543.772 497.418 528.212C502.539 523.898 507.502 519.398 512.305 514.711C515.452 511.654 518.522 508.523 521.517 505.316C543.973 481.337 562.156 453.51 575.244 423.098H35.0508Z" fill="#3F3D56"/>
<path d="M521.517 505.316C518.527 508.525 515.457 511.657 512.305 514.712H437.196V505.316H521.517Z" fill="white"/>
<path d="M358.058 204.827C357.687 204.125 357.138 203.538 356.469 203.13C355.799 202.721 355.035 202.506 354.256 202.506H98.3172C97.1697 202.509 96.0702 202.978 95.2595 203.811C94.4488 204.643 93.9931 205.771 93.9922 206.947V363.975H358.589V206.947C358.593 206.205 358.41 205.475 358.058 204.827Z" fill="#3F3D56"/>
<path d="M93.7607 359.724V379.101C93.7607 379.904 93.9151 380.7 94.215 381.442C94.5149 382.184 94.9544 382.858 95.5085 383.426C96.0627 383.995 96.7205 384.445 97.4445 384.752C98.1685 385.06 98.9445 385.218 99.7281 385.218H197.389V423.46H196.092C195.99 423.46 195.889 423.481 195.795 423.52C195.701 423.56 195.615 423.619 195.543 423.693C195.471 423.766 195.414 423.854 195.375 423.95C195.336 424.047 195.316 424.15 195.316 424.255V426.914C195.316 427.019 195.336 427.122 195.375 427.219C195.414 427.315 195.471 427.403 195.543 427.476C195.615 427.55 195.701 427.609 195.795 427.649C195.889 427.689 195.99 427.709 196.092 427.709H256.718C256.82 427.709 256.921 427.689 257.015 427.649C257.109 427.609 257.194 427.55 257.266 427.476C257.338 427.403 257.395 427.315 257.434 427.219C257.473 427.122 257.493 427.019 257.493 426.914V424.255C257.493 424.15 257.473 424.047 257.434 423.95C257.395 423.854 257.338 423.766 257.266 423.693C257.194 423.619 257.109 423.56 257.015 423.52C256.921 423.481 256.82 423.46 256.718 423.46H255.421V385.218H353.081C353.865 385.218 354.641 385.06 355.365 384.752C356.089 384.445 356.747 383.995 357.301 383.426C357.855 382.858 358.295 382.184 358.595 381.442C358.895 380.7 359.049 379.904 359.049 379.101V359.724H93.7607Z" fill="#3F3D56"/>
<path d="M223.199 304.108C236.697 304.108 247.64 292.891 247.64 279.054C247.64 265.218 236.697 254.001 223.199 254.001C209.701 254.001 198.759 265.218 198.759 279.054C198.759 292.891 209.701 304.108 223.199 304.108Z" fill="#6C63FF"/>
<path d="M285.471 138.445H281.567C281.567 108.195 252.362 88.3727 222.899 88.3567C218.614 88.3438 214.338 88.7701 210.135 89.6291C205.404 90.5974 200.493 91.7578 195.669 93.2703C176.644 99.2482 159 110.804 159 138.445C158.996 143.813 159.662 149.16 160.983 154.354L157.205 155.363C155.803 149.838 155.095 144.153 155.097 138.445C155.097 114.293 164.769 97.7037 181.476 87.8125C190.259 82.6108 200.977 79.2577 213.258 77.6252C218.368 76.9283 223.534 76.7674 228.676 77.145C262.558 79.6418 285.471 106.275 285.471 138.445Z" fill="#2B2B2B"/>
<path d="M291.973 140.661L290.435 129.01C290.056 126.067 288.673 123.357 286.532 121.359C285.157 120.057 283.512 119.092 281.72 118.537C279.928 117.983 278.036 117.853 276.188 118.158L273.744 118.502C273.076 118.592 272.431 118.818 271.848 119.165C271.265 119.513 270.755 119.976 270.348 120.527C269.938 121.076 269.637 121.703 269.464 122.372C269.292 123.041 269.25 123.739 269.341 124.424L272.893 151.265C273.04 152.359 273.518 153.378 274.261 154.178C275.003 154.978 275.972 155.518 277.031 155.722C277.344 155.787 277.664 155.819 277.983 155.818C278.213 155.818 278.443 155.802 278.67 155.77L281.403 155.394C283.069 155.168 284.672 154.594 286.114 153.709C287.556 152.825 288.806 151.647 289.787 150.249C289.998 149.944 290.201 149.632 290.389 149.312C291.852 146.694 292.41 143.646 291.973 140.661Z" fill="#2B2B2B"/>
<path d="M272.167 118.99C271.451 119.347 270.827 119.874 270.348 120.527C269.938 121.076 269.637 121.703 269.464 122.372C269.292 123.041 269.25 123.738 269.341 124.424L272.893 151.265C273.04 152.359 273.518 153.378 274.261 154.178C275.003 154.978 275.972 155.518 277.031 155.722L272.167 118.99Z" fill="white"/>
<path d="M291.974 140.662L290.436 129.01C290.056 126.067 288.674 123.357 286.532 121.359L290.069 148.064C290.122 148.493 290.229 148.913 290.389 149.313C291.852 146.694 292.411 143.646 291.974 140.662Z" fill="#3F3D56"/>
<path d="M279.819 149.057C280.887 148.908 281.424 146.302 281.018 143.237C280.613 140.171 279.418 137.806 278.35 137.955C277.282 138.103 276.745 140.709 277.151 143.775C277.556 146.84 278.751 149.205 279.819 149.057Z" fill="#3F3D56"/>
<path d="M277.476 134.652C278.545 134.504 279.081 131.898 278.676 128.832C278.27 125.767 277.075 123.402 276.007 123.55C274.939 123.699 274.402 126.305 274.808 129.37C275.214 132.436 276.408 134.801 277.476 134.652Z" fill="#3F3D56"/>
<path d="M292.31 140.254C293.378 140.105 293.915 137.5 293.509 134.434C293.103 131.368 291.909 129.003 290.84 129.152C289.772 129.3 289.235 131.906 289.641 134.972C290.047 138.038 291.242 140.402 292.31 140.254Z" fill="#3F3D56"/>
<path d="M222.899 88.3567C218.613 88.3438 214.337 88.7701 210.134 89.6291C205.403 90.5974 200.493 91.7578 195.668 93.2703C188.135 92.8941 182.592 90.8935 181.476 87.8125C190.258 82.6108 200.977 79.2577 213.257 77.6252C218.367 76.9283 223.534 76.7674 228.676 77.145C229.22 77.4721 229.691 77.9136 230.057 78.4405C230.422 78.9674 230.676 79.5677 230.799 80.202C231.166 82.9869 228.067 85.9479 222.899 88.3567Z" fill="#3F3D56"/>
<path d="M173.06 166.214L167.049 140.598C166.834 139.674 166.358 138.835 165.681 138.187C165.003 137.539 164.153 137.111 163.239 136.957C162.981 136.915 162.72 136.894 162.458 136.893C162.09 136.894 161.723 136.94 161.365 137.029L159.039 137.605C156.044 138.347 153.458 140.278 151.849 142.972C150.241 145.667 149.741 148.906 150.459 151.978L153.153 163.469C153.767 166.175 155.232 168.598 157.321 170.368C157.66 170.648 158.014 170.907 158.383 171.144C159.692 171.985 161.151 172.548 162.676 172.801C164.2 173.054 165.759 172.991 167.26 172.616L169.578 172.04C170.191 171.894 170.768 171.618 171.272 171.232C172.022 170.672 172.592 169.895 172.911 169.002C173.229 168.108 173.281 167.138 173.06 166.214Z" fill="#2B2B2B"/>
<path d="M160.459 161.448C161.507 161.19 161.784 158.542 161.078 155.534C160.371 152.526 158.949 150.297 157.901 150.555C156.853 150.814 156.576 153.462 157.282 156.47C157.989 159.478 159.411 161.707 160.459 161.448Z" fill="#3F3D56"/>
<path d="M152.651 163.848C153.699 163.59 153.976 160.942 153.27 157.934C152.564 154.926 151.142 152.697 150.094 152.956C149.046 153.214 148.769 155.862 149.475 158.87C150.181 161.878 151.603 164.107 152.651 163.848Z" fill="#3F3D56"/>
<path d="M173.443 166.118L167.432 140.502C167.197 139.502 166.681 138.595 165.946 137.895C165.211 137.194 164.292 136.732 163.302 136.564L171.507 171.552C172.317 170.944 172.933 170.103 173.278 169.136C173.623 168.169 173.68 167.119 173.443 166.118Z" fill="white"/>
<path d="M151.818 146.904C151.652 146.192 151.341 145.523 150.905 144.943C150.059 147.187 149.904 149.641 150.46 151.978L153.153 163.469C153.768 166.175 155.233 168.599 157.322 170.368L151.818 146.904Z" fill="#3F3D56"/>
</g>
<defs>
<clipPath id="clip0_139_1572">
<rect width="599" height="593" fill="white"/>
</clipPath>
</defs>
</svg>
