<svg width="200" height="200" viewBox="0 0 200 200" fill="none" xmlns="http://www.w3.org/2000/svg">
<path d="M75.025 50.0004C75.025 43.3766 77.6563 37.0241 82.34 32.3404C87.0238 27.6567 93.3762 25.0254 100 25.0254C106.624 25.0254 112.976 27.6567 117.66 32.3404C122.344 37.0241 124.975 43.3766 124.975 50.0004C124.975 56.6242 122.344 62.9767 117.66 67.6604C112.976 72.3441 106.624 74.9754 100 74.9754C93.3762 74.9754 87.0238 72.3441 82.34 67.6604C77.6563 62.9767 75.025 56.6242 75.025 50.0004V50.0004ZM100 37.5254C98.3618 37.5254 96.7396 37.8481 95.226 38.475C93.7125 39.1019 92.3373 40.0208 91.1789 41.1792C90.0205 42.3376 89.1016 43.7129 88.4746 45.2264C87.8477 46.74 87.525 48.3621 87.525 50.0004C87.525 51.6386 87.8477 53.2608 88.4746 54.7744C89.1016 56.2879 90.0205 57.6631 91.1789 58.8215C92.3373 59.98 93.7125 60.8989 95.226 61.5258C96.7396 62.1527 98.3618 62.4754 100 62.4754C103.309 62.4754 106.482 61.1611 108.821 58.8215C111.161 56.482 112.475 53.309 112.475 50.0004C112.475 46.6918 111.161 43.5187 108.821 41.1792C106.482 38.8397 103.309 37.5254 100 37.5254V37.5254Z" fill="#39424E"/>
<path d="M137.5 56.25C137.5 53.7877 137.985 51.3495 138.927 49.0747C139.87 46.7998 141.251 44.7328 142.992 42.9917C144.733 41.2506 146.8 39.8695 149.075 38.9273C151.35 37.985 153.788 37.5 156.25 37.5C158.712 37.5 161.15 37.985 163.425 38.9273C165.7 39.8695 167.767 41.2506 169.508 42.9917C171.249 44.7328 172.63 46.7998 173.573 49.0747C174.515 51.3495 175 53.7877 175 56.25C175 61.2228 173.025 65.9919 169.508 69.5083C165.992 73.0246 161.223 75 156.25 75C151.277 75 146.508 73.0246 142.992 69.5083C139.475 65.9919 137.5 61.2228 137.5 56.25ZM156.25 50C154.592 50 153.003 50.6585 151.831 51.8306C150.658 53.0027 150 54.5924 150 56.25C150 57.9076 150.658 59.4973 151.831 60.6694C153.003 61.8415 154.592 62.5 156.25 62.5C157.908 62.5 159.497 61.8415 160.669 60.6694C161.842 59.4973 162.5 57.9076 162.5 56.25C162.5 54.5924 161.842 53.0027 160.669 51.8306C159.497 50.6585 157.908 50 156.25 50Z" fill="#39424E"/>
<path d="M43.75 37.5C38.7772 37.5 34.0081 39.4754 30.4917 42.9917C26.9754 46.5081 25 51.2772 25 56.25C25 61.2228 26.9754 65.9919 30.4917 69.5083C34.0081 73.0246 38.7772 75 43.75 75C48.7228 75 53.4919 73.0246 57.0083 69.5083C60.5246 65.9919 62.5 61.2228 62.5 56.25C62.5 51.2772 60.5246 46.5081 57.0083 42.9917C53.4919 39.4754 48.7228 37.5 43.75 37.5ZM37.5 56.25C37.5 54.5924 38.1585 53.0027 39.3306 51.8306C40.5027 50.6585 42.0924 50 43.75 50C45.4076 50 46.9973 50.6585 48.1694 51.8306C49.3415 53.0027 50 54.5924 50 56.25C50 57.9076 49.3415 59.4973 48.1694 60.6694C46.9973 61.8415 45.4076 62.5 43.75 62.5C42.0924 62.5 40.5027 61.8415 39.3306 60.6694C38.1585 59.4973 37.5 57.9076 37.5 56.25Z" fill="#39424E"/>
<path d="M53.35 87.5C51.1501 91.2981 49.9943 95.6107 50 100H25V131.25C24.999 134.359 25.7712 137.42 27.2471 140.156C28.723 142.893 30.8563 145.22 33.4549 146.927C36.0535 148.634 39.0358 149.668 42.1334 149.936C45.2311 150.204 48.3468 149.698 51.2 148.462C52.125 152.6 53.575 156.55 55.45 160.238C50.7058 162.153 45.5639 162.874 40.4757 162.338C35.3876 161.802 30.5088 160.025 26.268 157.163C22.0272 154.301 18.554 150.441 16.1534 145.923C13.7528 141.405 12.4983 136.366 12.5 131.25V100C12.5 96.6848 13.817 93.5054 16.1612 91.1612C18.5054 88.817 21.6848 87.5 25 87.5H53.35Z" fill="#39424E"/>
<path d="M144.55 160.238C149.294 162.153 154.436 162.874 159.524 162.338C164.612 161.802 169.491 160.025 173.732 157.163C177.973 154.301 181.446 150.441 183.847 145.923C186.247 141.405 187.502 136.366 187.5 131.25V100C187.5 96.6848 186.183 93.5054 183.839 91.1612C181.495 88.817 178.315 87.5 175 87.5H146.65C148.775 91.175 150 95.4375 150 100H175V131.25C175.001 134.359 174.229 137.42 172.753 140.156C171.277 142.893 169.144 145.22 166.545 146.927C163.947 148.634 160.964 149.668 157.867 149.936C154.769 150.204 151.653 149.698 148.8 148.462C147.862 152.6 146.425 156.55 144.55 160.238Z" fill="#39424E"/>
<path d="M75 87.5C71.6848 87.5 68.5054 88.817 66.1612 91.1612C63.817 93.5054 62.5 96.6848 62.5 100V137.5C62.5 147.446 66.4509 156.984 73.4835 164.017C80.5161 171.049 90.0544 175 100 175C109.946 175 119.484 171.049 126.517 164.017C133.549 156.984 137.5 147.446 137.5 137.5V100C137.5 96.6848 136.183 93.5054 133.839 91.1612C131.495 88.817 128.315 87.5 125 87.5H75ZM75 100H125V137.5C125 144.13 122.366 150.489 117.678 155.178C112.989 159.866 106.63 162.5 100 162.5C93.3696 162.5 87.0107 159.866 82.3223 155.178C77.6339 150.489 75 144.13 75 137.5V100Z" fill="#39424E"/>
</svg>
