<svg width="571" height="432" viewBox="0 0 571 432" fill="none" xmlns="http://www.w3.org/2000/svg">
<g clip-path="url(#clip0_25_145)">
<path d="M329.051 21.0014C333.949 31.4357 323.57 34.3912 311.682 39.9839C299.793 45.5765 290.896 51.6884 285.999 41.2542C281.101 30.8199 277.127 10.1098 293.945 2.19802C311.343 -5.98629 324.153 10.5672 329.051 21.0014Z" fill="#2F2E41"/>
<path d="M304.795 41.5215C313.634 41.5215 320.799 34.3482 320.799 25.4994C320.799 16.6506 313.634 9.47729 304.795 9.47729C295.956 9.47729 288.79 16.6506 288.79 25.4994C288.79 34.3482 295.956 41.5215 304.795 41.5215Z" fill="#FFB8B8"/>
<path d="M384.084 96.5542C383.53 95.8301 382.977 95.1191 382.416 94.4276C381.693 93.5274 380.965 92.6554 380.233 91.8117C371.938 82.2289 363.115 76.1947 353.4 75.5489H353.386L353.243 75.5359L333.883 94.4276L327.302 100.847L327.445 101.199L330.996 110.051H393.22C390.416 105.393 387.367 100.888 384.084 96.5542V96.5542Z" fill="#2F2E41"/>
<path d="M287.391 31.9497L293.12 29.2546L292.322 20.9808L296.153 27.8279L298.891 26.5397L298.426 21.7133L300.661 25.7074L321.007 16.1359C319.096 12.0647 315.648 8.92025 311.421 7.39424C307.194 5.86822 302.535 6.08567 298.468 7.99875L295.519 9.38593C291.453 11.299 288.311 14.751 286.787 18.9826C285.263 23.2141 285.48 27.8785 287.391 31.9497V31.9497Z" fill="#2F2E41"/>
<path d="M419.989 322.778H85.8109C82.9603 322.774 80.2274 321.639 78.2118 319.622C76.1961 317.604 75.0623 314.868 75.0591 312.014V110.993C75.0614 108.902 75.892 106.898 77.3687 105.42C78.8453 103.941 80.8475 103.11 82.9358 103.107H422.728C424.852 103.11 426.889 103.956 428.391 105.46C429.893 106.964 430.738 109.003 430.741 111.129V312.014C430.738 314.868 429.604 317.604 427.588 319.622C425.572 321.639 422.839 322.774 419.989 322.778Z" fill="#F2F2F2"/>
<path d="M96.2368 312.014H409.563C412.328 312.014 414.98 310.914 416.935 308.957C418.891 307 419.989 304.345 419.989 301.577V130.959C419.989 128.19 418.891 125.536 416.935 123.578C414.98 121.621 412.328 120.521 409.563 120.521H96.2368C93.4716 120.521 90.8197 121.621 88.8645 123.578C86.9092 125.536 85.8108 128.19 85.8108 130.959V301.577C85.8108 304.345 86.9092 307 88.8645 308.957C90.8197 310.914 93.4716 312.014 96.2368 312.014Z" fill="white"/>
<path d="M430.591 110.378H74.9082V104.898C74.9123 102.034 76.0508 99.2898 78.0738 97.2659C80.0968 95.2419 82.8391 94.1039 85.6991 94.1016H419.8C422.66 94.1039 425.403 95.2419 427.426 97.2658C429.449 99.2898 430.587 102.034 430.591 104.898V110.378Z" fill="#6C63FF"/>
<path d="M94.519 105.05C96.0605 105.05 97.3101 103.799 97.3101 102.256C97.3101 100.712 96.0605 99.4614 94.519 99.4614C92.9774 99.4614 91.7278 100.712 91.7278 102.256C91.7278 103.799 92.9774 105.05 94.519 105.05Z" fill="white"/>
<path d="M105.114 105.05C106.655 105.05 107.905 103.799 107.905 102.256C107.905 100.712 106.655 99.4614 105.114 99.4614C103.572 99.4614 102.323 100.712 102.323 102.256C102.323 103.799 103.572 105.05 105.114 105.05Z" fill="white"/>
<path d="M115.708 105.05C117.25 105.05 118.499 103.799 118.499 102.256C118.499 100.712 117.25 99.4614 115.708 99.4614C114.167 99.4614 112.917 100.712 112.917 102.256C112.917 103.799 114.167 105.05 115.708 105.05Z" fill="white"/>
<path d="M262.676 275.013H234.657C233.015 275.011 231.442 274.357 230.281 273.195C229.121 272.034 228.468 270.458 228.466 268.815V240.765C228.468 239.122 229.121 237.547 230.281 236.385C231.442 235.223 233.015 234.569 234.657 234.568H262.676C264.318 234.569 265.891 235.223 267.052 236.385C268.212 237.547 268.865 239.122 268.867 240.765V268.815C268.865 270.458 268.212 272.034 267.052 273.195C265.891 274.357 264.318 275.011 262.676 275.013V275.013ZM234.657 235.872C233.361 235.874 232.119 236.39 231.203 237.307C230.286 238.224 229.771 239.468 229.77 240.765V268.815C229.771 270.113 230.286 271.356 231.203 272.273C232.119 273.191 233.361 273.707 234.657 273.708H262.676C263.972 273.707 265.214 273.191 266.131 272.273C267.047 271.356 267.562 270.113 267.564 268.815V240.765C267.562 239.468 267.047 238.224 266.131 237.307C265.214 236.39 263.972 235.874 262.676 235.872H234.657Z" fill="#CCCCCC"/>
<path d="M257.138 267.184H240.195C239.677 267.184 239.18 266.978 238.814 266.611C238.447 266.244 238.241 265.746 238.24 265.227V244.353C238.241 243.834 238.447 243.336 238.814 242.969C239.18 242.602 239.677 242.396 240.195 242.396H252.472C252.917 242.396 253.349 242.548 253.696 242.827L258.362 246.581C258.591 246.763 258.775 246.996 258.902 247.26C259.028 247.524 259.093 247.813 259.093 248.106V265.227C259.092 265.746 258.886 266.244 258.52 266.611C258.153 266.978 257.656 267.184 257.138 267.184V267.184ZM240.195 243.7C240.023 243.7 239.857 243.769 239.735 243.892C239.613 244.014 239.544 244.18 239.544 244.353V265.227C239.544 265.4 239.613 265.566 239.735 265.688C239.857 265.811 240.023 265.88 240.195 265.88H257.138C257.311 265.88 257.476 265.811 257.598 265.688C257.721 265.566 257.789 265.4 257.789 265.227V248.106C257.79 248.008 257.768 247.912 257.726 247.824C257.684 247.736 257.622 247.659 257.546 247.598L252.88 243.844C252.764 243.751 252.62 243.7 252.472 243.7H240.195Z" fill="#CCCCCC"/>
<path d="M253.879 251.528H243.453C243.281 251.528 243.115 251.46 242.993 251.337C242.87 251.215 242.802 251.049 242.802 250.876C242.802 250.703 242.87 250.537 242.993 250.415C243.115 250.292 243.281 250.224 243.453 250.224H253.879C254.052 250.224 254.218 250.292 254.34 250.415C254.462 250.537 254.531 250.703 254.531 250.876C254.531 251.049 254.462 251.215 254.34 251.337C254.218 251.46 254.052 251.528 253.879 251.528Z" fill="#CCCCCC"/>
<path d="M253.879 255.443H243.453C243.281 255.443 243.115 255.374 242.993 255.252C242.87 255.129 242.802 254.963 242.802 254.79C242.802 254.617 242.87 254.451 242.993 254.329C243.115 254.207 243.281 254.138 243.453 254.138H253.879C254.052 254.138 254.218 254.207 254.34 254.329C254.462 254.451 254.531 254.617 254.531 254.79C254.531 254.963 254.462 255.129 254.34 255.252C254.218 255.374 254.052 255.443 253.879 255.443Z" fill="#CCCCCC"/>
<path d="M253.879 259.357H243.453C243.281 259.357 243.115 259.288 242.993 259.165C242.87 259.043 242.802 258.877 242.802 258.704C242.802 258.531 242.87 258.365 242.993 258.243C243.115 258.12 243.281 258.052 243.453 258.052H253.879C254.052 258.052 254.218 258.12 254.34 258.243C254.462 258.365 254.531 258.531 254.531 258.704C254.531 258.877 254.462 259.043 254.34 259.165C254.218 259.288 254.052 259.357 253.879 259.357Z" fill="#CCCCCC"/>
<path d="M329.142 275.013H301.122C299.481 275.011 297.908 274.357 296.747 273.195C295.587 272.034 294.934 270.458 294.932 268.815V240.765C294.934 239.122 295.587 237.547 296.747 236.385C297.908 235.223 299.481 234.569 301.122 234.568H329.142C330.783 234.569 332.357 235.223 333.517 236.385C334.678 237.547 335.331 239.122 335.333 240.765V268.815C335.331 270.458 334.678 272.034 333.517 273.195C332.357 274.357 330.783 275.011 329.142 275.013V275.013ZM301.122 235.872C299.827 235.874 298.584 236.39 297.668 237.307C296.752 238.224 296.237 239.468 296.235 240.765V268.815C296.237 270.113 296.752 271.356 297.668 272.273C298.584 273.191 299.827 273.707 301.122 273.708H329.142C330.438 273.707 331.68 273.191 332.596 272.273C333.512 271.356 334.028 270.113 334.029 268.815V240.765C334.028 239.468 333.512 238.224 332.596 237.307C331.68 236.39 330.438 235.874 329.142 235.872H301.122Z" fill="#CCCCCC"/>
<path d="M324.255 261.966H306.01C305.491 261.965 304.994 261.759 304.628 261.392C304.261 261.025 304.055 260.527 304.055 260.009V249.571C304.055 249.052 304.261 248.555 304.628 248.188C304.994 247.821 305.491 247.615 306.01 247.614H324.255C324.773 247.615 325.27 247.821 325.637 248.188C326.003 248.555 326.209 249.052 326.21 249.571V260.009C326.209 260.527 326.003 261.025 325.637 261.392C325.27 261.759 324.773 261.965 324.255 261.966V261.966ZM306.01 248.919C305.837 248.919 305.671 248.988 305.549 249.11C305.427 249.232 305.358 249.398 305.358 249.571V260.009C305.358 260.182 305.427 260.347 305.549 260.47C305.671 260.592 305.837 260.661 306.01 260.661H324.255C324.428 260.661 324.593 260.592 324.716 260.47C324.838 260.347 324.907 260.182 324.907 260.009V249.571C324.907 249.398 324.838 249.232 324.716 249.11C324.593 248.988 324.428 248.919 324.255 248.919H306.01Z" fill="#CCCCCC"/>
<path d="M315.132 256.511C314.766 256.512 314.407 256.409 314.096 256.216L304.361 250.125C304.214 250.033 304.111 249.886 304.072 249.718C304.033 249.55 304.063 249.373 304.155 249.226C304.246 249.079 304.392 248.975 304.56 248.936C304.728 248.897 304.905 248.927 305.052 249.018L314.787 255.109C314.891 255.173 315.01 255.208 315.132 255.208C315.254 255.208 315.374 255.173 315.478 255.109L325.213 249.018C325.359 248.927 325.536 248.897 325.704 248.936C325.872 248.975 326.018 249.079 326.11 249.226C326.201 249.373 326.231 249.55 326.192 249.718C326.154 249.886 326.05 250.033 325.904 250.125L316.169 256.216C315.858 256.409 315.498 256.512 315.132 256.511V256.511Z" fill="#CCCCCC"/>
<path d="M196.211 275.013H168.191C166.55 275.011 164.976 274.357 163.816 273.195C162.655 272.034 162.002 270.458 162 268.815V240.765C162.002 239.122 162.655 237.547 163.816 236.385C164.976 235.223 166.55 234.569 168.191 234.568H196.211C197.852 234.569 199.425 235.223 200.586 236.385C201.747 237.547 202.399 239.122 202.401 240.765V268.815C202.399 270.458 201.747 272.034 200.586 273.195C199.425 274.357 197.852 275.011 196.211 275.013V275.013ZM168.191 235.872C166.895 235.874 165.653 236.39 164.737 237.307C163.821 238.224 163.305 239.468 163.304 240.765V268.815C163.305 270.113 163.821 271.356 164.737 272.273C165.653 273.191 166.895 273.707 168.191 273.708H196.211C197.506 273.707 198.749 273.191 199.665 272.273C200.581 271.356 201.097 270.113 201.098 268.815V240.765C201.097 239.468 200.581 238.224 199.665 237.307C198.749 236.39 197.506 235.874 196.211 235.872H168.191Z" fill="#CCCCCC"/>
<path d="M191.324 261.966H173.078C172.56 261.965 172.063 261.759 171.696 261.392C171.33 261.025 171.124 260.527 171.123 260.009V249.571C171.124 249.052 171.33 248.555 171.696 248.188C172.063 247.821 172.56 247.615 173.078 247.614H191.324C191.842 247.615 192.339 247.821 192.705 248.188C193.072 248.555 193.278 249.052 193.279 249.571V260.009C193.278 260.527 193.072 261.025 192.705 261.392C192.339 261.759 191.842 261.965 191.324 261.966V261.966ZM173.078 248.919C172.905 248.919 172.74 248.988 172.618 249.11C172.495 249.232 172.427 249.398 172.427 249.571V260.009C172.427 260.182 172.495 260.347 172.618 260.47C172.74 260.592 172.905 260.661 173.078 260.661H191.324C191.496 260.661 191.662 260.592 191.784 260.47C191.906 260.347 191.975 260.182 191.975 260.009V249.571C191.975 249.398 191.906 249.232 191.784 249.11C191.662 248.988 191.496 248.919 191.324 248.919H173.078Z" fill="#CCCCCC"/>
<path d="M188.432 261.966H175.319C175.09 261.966 174.865 261.905 174.667 261.791C174.469 261.676 174.304 261.512 174.19 261.313C174.075 261.115 174.015 260.89 174.015 260.661C174.015 260.432 174.075 260.207 174.19 260.009L178.14 253.159C178.254 252.961 178.419 252.796 178.617 252.682C178.815 252.567 179.04 252.507 179.268 252.507C179.497 252.507 179.722 252.567 179.92 252.682C180.118 252.796 180.283 252.961 180.397 253.159L182.948 257.583L184.426 255.02C184.541 254.822 184.705 254.657 184.903 254.542C185.101 254.428 185.326 254.368 185.555 254.368C185.784 254.368 186.009 254.428 186.207 254.542C186.405 254.657 186.569 254.822 186.684 255.02L189.561 260.009C189.675 260.207 189.735 260.432 189.735 260.661C189.735 260.89 189.675 261.115 189.561 261.313C189.446 261.512 189.282 261.676 189.083 261.791C188.885 261.905 188.661 261.966 188.432 261.966H188.432ZM188.432 260.661L185.555 255.672L183.513 259.214C183.456 259.313 183.373 259.395 183.274 259.452C183.175 259.51 183.063 259.54 182.948 259.54V259.54C182.834 259.54 182.722 259.51 182.622 259.452C182.523 259.395 182.441 259.313 182.384 259.214L179.269 253.811L175.319 260.661H188.432Z" fill="#CCCCCC"/>
<path d="M189.369 252.833C190.088 252.833 190.672 252.249 190.672 251.528C190.672 250.808 190.088 250.224 189.369 250.224C188.649 250.224 188.065 250.808 188.065 251.528C188.065 252.249 188.649 252.833 189.369 252.833Z" fill="#CCCCCC"/>
<path d="M500.985 422.814L492.996 422.813L489.196 391.965L500.987 391.966L500.985 422.814Z" fill="#FFB8B8"/>
<path d="M503.022 430.566L477.263 430.565V430.239C477.263 428.921 477.523 427.615 478.027 426.398C478.53 425.18 479.269 424.073 480.2 423.141C481.131 422.209 482.236 421.47 483.453 420.966C484.669 420.461 485.973 420.202 487.29 420.202H487.29L503.023 420.202L503.022 430.566Z" fill="#2F2E41"/>
<path d="M533.566 422.814L525.578 422.813L521.777 391.965L533.568 391.966L533.566 422.814Z" fill="#FFB8B8"/>
<path d="M535.603 430.566L509.845 430.565V430.239C509.845 428.921 510.104 427.615 510.608 426.398C511.112 425.18 511.85 424.073 512.781 423.141C513.712 422.209 514.818 421.47 516.034 420.966C517.251 420.461 518.554 420.202 519.871 420.202H519.872L535.604 420.202L535.603 430.566Z" fill="#2F2E41"/>
<path d="M531.171 409.441L523.772 407.188C523.221 407.02 522.731 406.694 522.364 406.249C521.997 405.804 521.769 405.261 521.71 404.687L514.812 339.24C514.806 339.161 514.771 339.087 514.713 339.033C514.655 338.979 514.579 338.949 514.5 338.949C514.421 338.941 514.341 338.965 514.279 339.015C514.217 339.064 514.177 339.137 514.167 339.216L502.613 402.623C502.543 403.007 502.397 403.374 502.183 403.701C501.969 404.029 501.693 404.31 501.369 404.529C501.045 404.748 500.681 404.899 500.297 404.975C499.914 405.051 499.52 405.05 499.137 404.971L489.681 403.021C488.988 402.875 488.37 402.485 487.941 401.92C487.512 401.355 487.301 400.655 487.347 399.947L494.375 296.021L542.033 290.873L534.951 406.811C534.906 407.556 534.578 408.256 534.035 408.769C533.492 409.281 532.775 409.567 532.029 409.569C531.739 409.569 531.449 409.526 531.171 409.441V409.441Z" fill="#2F2E41"/>
<path d="M531.126 205.518C539.966 205.518 547.131 198.345 547.131 189.496C547.131 180.647 539.966 173.474 531.126 173.474C522.287 173.474 515.122 180.647 515.122 189.496C515.122 198.345 522.287 205.518 531.126 205.518Z" fill="#FFB8B8"/>
<path d="M494.302 296.632L504.635 231.495C505.185 228.032 506.465 224.725 508.39 221.796C510.315 218.866 512.841 216.381 515.801 214.505C518.76 212.629 522.085 211.405 525.553 210.915C529.022 210.425 532.554 210.681 535.917 211.664C541.795 213.366 546.829 217.201 550.034 222.42C553.24 227.638 554.386 233.866 553.251 239.886L547.845 268.971L542.439 298.056L494.302 296.632Z" fill="#8E8FAF"/>
<path d="M535.544 308.286C536.344 307.758 537.018 307.06 537.519 306.243C538.02 305.426 538.335 304.508 538.444 303.555C538.553 302.602 538.451 301.637 538.147 300.728C537.842 299.819 537.343 298.987 536.683 298.292L547.367 277.58L535.335 278.865L527.033 298.337C525.94 299.525 525.321 301.072 525.291 302.686C525.262 304.301 525.825 305.87 526.874 307.096C527.924 308.322 529.386 309.121 530.983 309.34C532.581 309.56 534.204 309.185 535.544 308.286V308.286Z" fill="#FFB8B8"/>
<path d="M537.832 294.639C537.241 294.555 536.69 294.293 536.251 293.888L532.163 290.107C531.722 289.696 531.417 289.16 531.289 288.57C531.162 287.981 531.219 287.366 531.452 286.81L539.622 267.423L538.463 229.118C538.629 227.887 539.037 226.7 539.662 225.627C540.286 224.553 541.117 223.613 542.105 222.861C543.092 222.109 544.219 221.559 545.419 221.242C546.62 220.926 547.87 220.85 549.1 221.018C550.33 221.186 551.515 221.595 552.587 222.221C553.659 222.848 554.597 223.68 555.347 224.669C556.098 225.659 556.646 226.787 556.961 227.989C557.276 229.191 557.351 230.443 557.182 231.674L559.164 255.754C559.766 263.062 557.696 270.34 553.339 276.235L540.599 293.478C540.354 293.809 540.042 294.085 539.683 294.288C539.324 294.491 538.927 294.616 538.517 294.655C538.289 294.676 538.059 294.671 537.832 294.639V294.639Z" fill="#8E8FAF"/>
<path d="M438.961 180.766C439.135 181.709 439.514 182.603 440.07 183.383C440.627 184.164 441.348 184.813 442.182 185.284C443.016 185.756 443.943 186.039 444.898 186.113C445.853 186.186 446.813 186.05 447.71 185.712L462.597 203.638L466.105 192.044L451.431 176.8C450.765 175.329 449.583 174.155 448.109 173.498C446.636 172.842 444.973 172.749 443.436 173.238C441.899 173.727 440.594 174.764 439.769 176.151C438.945 177.539 438.657 179.181 438.961 180.766V180.766Z" fill="#FFB8B8"/>
<path d="M450.622 188.197C450.93 187.684 451.386 187.278 451.929 187.032L457.002 184.738C457.551 184.491 458.164 184.418 458.756 184.531C459.348 184.644 459.891 184.936 460.312 185.367L474.959 200.457L510.646 214.324C511.714 214.957 512.647 215.795 513.391 216.79C514.135 217.785 514.676 218.917 514.983 220.121C515.291 221.325 515.357 222.578 515.18 223.808C515.003 225.038 514.586 226.221 513.952 227.29C513.318 228.358 512.479 229.291 511.485 230.035C510.49 230.779 509.359 231.319 508.156 231.625C506.953 231.931 505.701 231.996 504.473 231.818C503.244 231.639 502.063 231.22 500.996 230.584L478.074 223.022C471.117 220.728 465.229 215.982 461.505 209.668L450.612 191.2C450.402 190.844 450.27 190.449 450.223 190.039C450.177 189.63 450.217 189.215 450.341 188.821C450.41 188.603 450.504 188.393 450.622 188.197V188.197Z" fill="#8E8FAF"/>
<path opacity="0.1" d="M544.107 245.052L543.456 265.927L531.452 286.809L541.475 263.538L544.107 245.052Z" fill="black"/>
<path d="M529.292 192.507C528.287 192.638 527.269 192.399 526.426 191.835C525.584 191.271 524.974 190.42 524.711 189.44C524.457 188.312 523.902 187.274 523.104 186.438C522.306 185.602 521.296 185 520.182 184.695C517.246 184.023 513.658 185.407 511.506 183.18C511.046 182.672 510.712 182.061 510.534 181.398C510.355 180.736 510.337 180.04 510.48 179.369C510.876 177.205 512.422 175.57 514.105 174.262C517.646 171.524 521.931 169.921 526.399 169.663C528.711 169.596 531.025 169.711 533.319 170.008C535.722 170.159 538.098 170.594 540.398 171.303C543.019 172.293 545.349 173.929 547.171 176.059C548.994 178.188 550.251 180.744 550.826 183.489C551.351 186.242 551.271 189.077 550.589 191.796C549.907 194.515 548.641 197.052 546.879 199.23C544.769 201.86 542.048 203.934 538.954 205.27C538.217 205.618 537.373 205.661 536.605 205.389C534.677 204.622 534.992 202.232 535.871 200.638C536.811 198.933 538.258 197.281 537.502 195.205C537.123 194.243 536.395 193.459 535.464 193.009C533.549 192.031 531.406 192.263 529.346 192.501L529.292 192.507Z" fill="#2F2E41"/>
<path d="M433.612 201.555H235.519C232.668 201.552 229.935 200.417 227.92 198.399C225.904 196.381 224.77 193.645 224.767 190.791V148.389C224.77 145.536 225.904 142.8 227.92 140.782C229.935 138.764 232.668 137.629 235.519 137.626H433.612C436.463 137.629 439.196 138.764 441.212 140.782C443.227 142.8 444.361 145.536 444.364 148.389V190.791C444.361 193.645 443.227 196.381 441.212 198.399C439.196 200.417 436.463 201.552 433.612 201.555V201.555Z" fill="white"/>
<path d="M433.612 201.881H235.519C232.582 201.878 229.766 200.708 227.689 198.629C225.612 196.55 224.444 193.732 224.441 190.791V148.389C224.444 145.449 225.612 142.63 227.689 140.551C229.766 138.472 232.582 137.303 235.519 137.3H433.612C436.549 137.303 439.365 138.472 441.442 140.551C443.519 142.63 444.687 145.449 444.69 148.389V190.791C444.687 193.732 443.518 196.55 441.442 198.629C439.365 200.708 436.549 201.878 433.612 201.881ZM235.519 138.604C232.927 138.607 230.443 139.639 228.61 141.473C226.778 143.308 225.747 145.795 225.744 148.389V190.791C225.747 193.386 226.778 195.873 228.61 197.707C230.443 199.542 232.927 200.574 235.519 200.576H433.612C436.204 200.574 438.688 199.542 440.521 197.707C442.353 195.873 443.384 193.386 443.387 190.791V148.389C443.384 145.795 442.353 143.308 440.521 141.473C438.688 139.639 436.204 138.607 433.612 138.604H235.519Z" fill="#3F3D56"/>
<path d="M409.502 191.118H259.629C256.778 191.114 254.045 189.979 252.03 187.962C250.014 185.944 248.88 183.208 248.877 180.354V158.175C248.88 155.321 250.014 152.585 252.03 150.567C254.045 148.549 256.778 147.414 259.629 147.411H409.502C412.353 147.414 415.086 148.549 417.101 150.567C419.117 152.585 420.251 155.321 420.254 158.175V180.354C420.251 183.208 419.117 185.944 417.101 187.962C415.086 189.979 412.353 191.114 409.502 191.118V191.118Z" fill="#F2F2F2"/>
<path d="M291.881 179.163C298.982 179.163 304.739 173.4 304.739 166.291C304.739 159.182 298.982 153.419 291.881 153.419C284.78 153.419 279.023 159.182 279.023 166.291C279.023 173.4 284.78 179.163 291.881 179.163Z" fill="#FF6584"/>
<path d="M400.189 189.819L382.039 174.58L364.203 159.605C363.732 159.21 363.137 158.994 362.523 158.995C361.909 158.996 361.315 159.214 360.845 159.611L343.067 174.655L338.725 178.33L332.177 172.833L312.278 156.126C311.807 155.731 311.212 155.514 310.598 155.516C309.984 155.517 309.39 155.735 308.921 156.132L289.086 172.916L268.94 189.964C268.838 190.05 268.765 190.166 268.731 190.295C268.696 190.424 268.703 190.561 268.749 190.687C268.795 190.812 268.878 190.921 268.988 190.997C269.098 191.074 269.228 191.115 269.362 191.114L310.666 191.035L323.741 191.009L323.613 191.118L362.585 191.042L399.771 190.971C399.905 190.971 400.035 190.929 400.145 190.852C400.254 190.775 400.337 190.667 400.383 190.541C400.428 190.415 400.434 190.278 400.399 190.149C400.365 190.02 400.291 189.905 400.189 189.819Z" fill="#3F3D56"/>
<path d="M570.348 431.504H445.237C445.064 431.504 444.898 431.436 444.776 431.313C444.654 431.191 444.585 431.025 444.585 430.852C444.585 430.679 444.654 430.513 444.776 430.391C444.898 430.268 445.064 430.2 445.237 430.2H570.348C570.521 430.2 570.687 430.268 570.809 430.391C570.931 430.513 571 430.679 571 430.852C571 431.025 570.931 431.191 570.809 431.313C570.687 431.436 570.521 431.504 570.348 431.504Z" fill="#CCCCCC"/>
<path d="M393.618 86.0515C393.097 85.2049 392.41 84.4733 391.598 83.9013C390.785 83.3293 389.865 82.9289 388.893 82.7246C388.537 82.6497 388.175 82.6039 387.812 82.5876L338.164 38.1503C337.189 37.1468 335.888 36.5246 334.496 36.3955C334.221 36.3639 333.944 36.3552 333.668 36.3694C332.523 36.4215 331.417 36.8066 330.487 37.4777C329.557 38.1487 328.842 39.0766 328.43 40.1479C328.018 41.2191 327.926 42.3873 328.167 43.5097C328.408 44.6321 328.97 45.6599 329.785 46.4676L348.792 63.0566L380.005 90.2917C380.031 90.8047 380.107 91.3138 380.233 91.8117C380.607 93.254 381.409 94.5485 382.535 95.5236C383.66 96.4987 385.055 97.1084 386.534 97.2718C387.884 97.4295 389.25 97.2035 390.477 96.6194C391.449 96.164 392.312 95.503 393.005 94.682C393.077 94.5972 393.142 94.5189 393.207 94.4276C394.118 93.2389 394.646 91.8003 394.719 90.3037C394.792 88.8072 394.408 87.3238 393.618 86.0515H393.618Z" fill="#FFB8B8"/>
<path d="M308.698 128.878L308.236 110.051L307.845 94.4276L307.577 83.4944L307.049 62.1824C306.945 61.0414 306.511 59.9555 305.8 59.0572C305.09 58.159 304.133 57.4872 303.048 57.1241C301.962 56.7609 300.795 56.722 299.687 57.0121C298.58 57.3022 297.581 57.9087 296.812 58.7577C296.631 58.9516 296.468 59.1612 296.324 59.3839C295.521 60.5341 295.161 61.9354 295.307 63.3306L296.467 94.4276L297.047 110.051L297.79 129.98C297.576 130.273 297.382 130.58 297.21 130.9C296.747 131.779 296.467 132.744 296.387 133.736C296.308 134.727 296.43 135.724 296.747 136.667C297.079 137.655 297.615 138.562 298.321 139.327C299.028 140.093 299.889 140.7 300.846 141.109C301.804 141.518 302.838 141.718 303.879 141.698C304.92 141.678 305.945 141.437 306.886 140.992C307.98 140.474 308.929 139.695 309.65 138.723C310.371 137.751 310.842 136.616 311.021 135.419C311.201 134.221 311.082 132.998 310.677 131.857C310.272 130.716 309.592 129.693 308.698 128.878H308.698Z" fill="#FFB8B8"/>
<path d="M353.4 75.549L348.792 63.0567L341.338 42.8211C340.8 41.3488 339.938 40.0166 338.815 38.9235C337.693 37.8303 336.339 37.0042 334.854 36.5065C334.737 36.4673 334.613 36.4282 334.496 36.3955C333.057 35.9585 331.541 35.8382 330.052 36.0432C328.563 36.2481 327.136 36.7734 325.868 37.5828L300.761 53.526C298.462 54.9827 296.818 57.2772 296.177 59.9248C295.536 62.5723 295.949 65.3655 297.327 67.7144C300.467 73.1495 303.888 78.4167 307.577 83.4944C310.503 87.4802 315.951 87.9043 316.896 94.4277H335.408L354.149 77.5843L353.4 75.549Z" fill="#CCCCCC"/>
<path d="M65.9212 228.223C74.2603 228.223 81.0205 221.456 81.0205 213.108C81.0205 204.76 74.2603 197.992 65.9212 197.992C57.5822 197.992 50.822 204.76 50.822 213.108C50.822 221.456 57.5822 228.223 65.9212 228.223Z" fill="#A0616A"/>
<path d="M102.99 202.703C103.139 202.821 103.283 202.947 103.423 203.08C104.116 203.734 104.664 204.527 105.03 205.408C105.396 206.289 105.572 207.237 105.546 208.191C105.521 209.145 105.294 210.082 104.881 210.942C104.468 211.802 103.879 212.565 103.151 213.18C102.981 213.323 102.804 213.456 102.621 213.581L103.643 248.119C103.672 249.249 103.336 250.359 102.685 251.284C102.034 252.208 101.103 252.898 100.029 253.25L99.9671 253.264L71.9547 256.25C71.1931 256.331 70.423 256.261 69.6889 256.042C68.9548 255.824 68.2712 255.462 67.6776 254.977C67.084 254.493 66.5921 253.895 66.2304 253.22C65.8687 252.544 65.6443 251.803 65.5702 251.04C65.4961 250.277 65.5737 249.506 65.7986 248.773C66.0235 248.041 66.3912 247.359 66.8805 246.77C67.3697 246.18 67.9709 245.693 68.6492 245.337C69.3275 244.981 70.0695 244.763 70.8325 244.696L90.801 242.935L94.2544 213.025C94.0285 212.824 93.8169 212.609 93.6213 212.379C92.5385 211.096 91.9706 209.456 92.0279 207.777C92.0852 206.099 92.7635 204.502 93.9312 203.296C95.0988 202.09 96.6725 201.361 98.3466 201.252C100.021 201.142 101.676 201.659 102.99 202.703H102.99Z" fill="#A0616A"/>
<path d="M90.7896 423.482H98.327L101.912 394.379H90.7883L90.7896 423.482Z" fill="#A0616A"/>
<path d="M88.8674 421.018L103.71 421.018H103.711C104.953 421.018 106.183 421.262 107.331 421.738C108.478 422.214 109.521 422.912 110.399 423.791C111.278 424.67 111.974 425.714 112.45 426.863C112.925 428.012 113.17 429.243 113.17 430.487V430.794L88.8679 430.795L88.8674 421.018Z" fill="#2F2E41"/>
<path d="M15.8774 413.05L22.3533 416.91L40.3075 393.74L30.7495 388.043L15.8774 413.05Z" fill="#A0616A"/>
<path d="M15.4844 409.948L28.2378 417.55L28.2383 417.55C29.3056 418.186 30.2373 419.027 30.9802 420.023C31.723 421.02 32.2625 422.153 32.5678 423.359C32.8732 424.564 32.9383 425.818 32.7596 427.049C32.5809 428.279 32.1618 429.462 31.5263 430.531L31.369 430.795L10.488 418.349L15.4844 409.948Z" fill="#2F2E41"/>
<path d="M100.105 413.203H91.6655C90.9821 413.204 90.3226 412.951 89.8145 412.494C89.3064 412.036 88.9858 411.406 88.9147 410.726L80.4063 330.659C80.3848 330.458 80.2977 330.269 80.1584 330.122C80.0191 329.975 79.8353 329.878 79.6354 329.846C79.4355 329.814 79.2305 329.848 79.0522 329.944C78.8739 330.04 78.7322 330.192 78.6488 330.377L63.2995 364.402L36.1244 408.763C35.7727 409.332 35.2281 409.755 34.5904 409.954C33.9527 410.154 33.2646 410.117 32.652 409.85L21.7957 405.068C21.4368 404.91 21.1155 404.677 20.8533 404.385C20.591 404.093 20.3937 403.749 20.2745 403.375C20.1553 403.001 20.1168 402.605 20.1618 402.215C20.2067 401.825 20.3339 401.449 20.535 401.112L45.5164 359.237L53.1779 323.955C50.7683 308.655 61.0984 285.907 61.2032 285.678L61.2544 285.567L89.7092 274.433L89.8519 274.608C101.074 311.474 107.912 351.149 102.863 410.665C102.8 411.356 102.483 411.998 101.974 412.467C101.464 412.936 100.798 413.199 100.105 413.203V413.203Z" fill="#2F2E41"/>
<path d="M60.108 289.295L59.9754 289.016C59.9121 288.883 53.585 275.524 48.7076 261.245C47.7702 258.484 47.4158 255.558 47.6669 252.653C47.918 249.747 48.7691 246.926 50.1663 244.367C51.5816 241.782 53.5178 239.519 55.8524 237.721C58.1869 235.924 60.8688 234.632 63.7283 233.927V233.927C68.6923 232.736 73.9186 233.369 78.455 235.713C82.9914 238.056 86.536 241.953 88.4429 246.693C92.3118 256.378 91.0788 266.716 89.9184 274.846L89.8953 275.009L89.7473 275.08L60.108 289.295Z" fill="#3F3D56"/>
<path d="M84.2287 204.569H60.2529V194.107C65.5153 192.014 70.6649 190.234 73.7777 194.107C76.5495 194.107 79.2077 195.209 81.1677 197.171C83.1276 199.133 84.2287 201.794 84.2287 204.569V204.569Z" fill="#2F2E41"/>
<path d="M58.9256 192.26C44.5924 192.26 40.5806 210.246 40.5806 220.393C40.5806 226.051 43.1369 228.075 47.1538 228.76L48.5725 221.186L51.8951 229.086C53.0235 229.092 54.2089 229.07 55.4378 229.047L56.5644 226.725L59.0766 229.005C69.1382 229.02 77.2704 230.489 77.2704 220.393C77.2704 210.246 73.752 192.26 58.9256 192.26Z" fill="#2F2E41"/>
<path d="M125.763 431.504H0.651624C0.478802 431.504 0.313059 431.436 0.190856 431.313C0.0686525 431.191 0 431.025 0 430.852C0 430.679 0.0686525 430.513 0.190856 430.391C0.313059 430.268 0.478802 430.2 0.651624 430.2H125.763C125.936 430.2 126.102 430.268 126.224 430.391C126.346 430.513 126.415 430.679 126.415 430.852C126.415 431.025 126.346 431.191 126.224 431.313C126.102 431.436 125.936 431.504 125.763 431.504Z" fill="#CCCCCC"/>
<path d="M128.116 216.885H100.096C98.455 216.883 96.8815 216.23 95.721 215.068C94.5604 213.906 93.9076 212.331 93.9058 210.688V182.637C93.9076 180.994 94.5604 179.419 95.721 178.257C96.8815 177.095 98.455 176.442 100.096 176.44H128.116C129.757 176.442 131.331 177.095 132.491 178.257C133.652 179.419 134.305 180.994 134.306 182.637V210.688C134.305 212.331 133.652 213.906 132.491 215.068C131.331 216.23 129.757 216.883 128.116 216.885V216.885Z" fill="white"/>
<path d="M128.116 216.885H100.096C98.455 216.883 96.8815 216.23 95.721 215.068C94.5604 213.906 93.9076 212.331 93.9058 210.688V182.637C93.9076 180.994 94.5604 179.419 95.721 178.257C96.8815 177.095 98.455 176.442 100.096 176.44H128.116C129.757 176.442 131.331 177.095 132.491 178.257C133.652 179.419 134.305 180.994 134.306 182.637V210.688C134.305 212.331 133.652 213.906 132.491 215.068C131.331 216.23 129.757 216.883 128.116 216.885V216.885ZM100.096 177.745C98.8005 177.746 97.5582 178.262 96.642 179.179C95.7258 180.096 95.2105 181.34 95.209 182.637V210.688C95.2105 211.985 95.7258 213.229 96.642 214.146C97.5582 215.063 98.8005 215.579 100.096 215.58H128.116C129.412 215.579 130.654 215.063 131.57 214.146C132.486 213.229 133.002 211.985 133.003 210.688V182.637C133.002 181.34 132.486 180.096 131.57 179.179C130.654 178.262 129.412 177.746 128.116 177.745H100.096Z" fill="#3F3D56"/>
<path d="M123.229 205.469H104.983C104.465 205.469 103.968 205.262 103.602 204.895C103.235 204.528 103.029 204.031 103.029 203.512V189.813C103.029 189.294 103.235 188.797 103.602 188.43C103.968 188.063 104.465 187.857 104.983 187.856H110.12C110.454 187.855 110.783 187.94 111.074 188.103C111.366 188.266 111.611 188.502 111.785 188.787L113.217 191.118H123.229C123.747 191.118 124.244 191.325 124.611 191.691C124.977 192.058 125.183 192.556 125.184 193.075V203.512C125.183 204.031 124.977 204.528 124.611 204.895C124.244 205.262 123.747 205.469 123.229 205.469V205.469Z" fill="#6C63FF"/>
<path d="M122.635 212.39C122.726 212.557 122.811 212.729 122.888 212.905C123.274 213.778 123.471 214.722 123.467 215.676C123.463 216.63 123.257 217.572 122.864 218.441C122.471 219.31 121.898 220.086 121.185 220.718C120.471 221.35 119.632 221.824 118.722 222.109C118.511 222.175 118.296 222.229 118.078 222.272L105.633 254.501C105.221 255.554 104.482 256.446 103.523 257.046C102.565 257.645 101.439 257.919 100.313 257.827L100.251 257.815L73.2757 249.685C72.5423 249.464 71.8599 249.1 71.268 248.613C70.676 248.127 70.1862 247.528 69.8268 246.851C69.4674 246.173 69.2456 245.432 69.1742 244.668C69.1028 243.905 69.1831 243.135 69.4106 242.403C69.6381 241.671 70.0083 240.991 70.4997 240.403C70.9911 239.814 71.594 239.33 72.2737 238.976C72.9533 238.622 73.6962 238.407 74.4594 238.343C75.2226 238.278 75.991 238.366 76.7203 238.6L95.8066 244.735L110.583 218.509C110.452 218.237 110.341 217.956 110.25 217.668C109.749 216.065 109.862 214.333 110.565 212.809C111.268 211.284 112.513 210.075 114.056 209.418C115.6 208.76 117.333 208.7 118.918 209.249C120.503 209.798 121.828 210.918 122.635 212.39H122.635Z" fill="#A0616A"/>
</g>
<defs>
<clipPath id="clip0_25_145">
<rect width="571" height="431.505" fill="white"/>
</clipPath>
</defs>
</svg>
